<svg width="96" height="40" viewBox="0 0 96 40" fill="none" xmlns="http://www.w3.org/2000/svg">
<g clip-path="url(#clip0_1198_4446)">
<path d="M51.7764 25.0758C51.4275 25.1881 51.0723 25.2913 50.7079 25.3854C50.6394 26.6876 50.2842 27.7032 49.6421 28.4365C48.9198 29.2593 47.8842 29.6694 46.5335 29.6694C45.1828 29.6694 44.1536 29.2639 43.4412 28.4502C42.8979 27.8292 42.5609 26.9899 42.433 25.9351C42.1919 25.9032 41.9581 25.8639 41.7316 25.8228C41.7042 25.8182 41.6769 25.8137 41.6513 25.8091C41.0805 25.6995 40.5444 25.5634 40.0513 25.4009C39.7024 25.2886 39.3755 25.1625 39.0723 25.0246C38.728 24.8712 38.4148 24.7013 38.1298 24.5178V24.7059C38.1298 27.4228 38.8476 29.4904 40.2805 30.9041C41.7134 32.3187 43.7974 33.0264 46.5344 33.0264C49.2714 33.0264 51.3618 32.3132 52.8038 30.8904C54.2458 29.4666 54.9682 27.4036 54.9682 24.7059V23.642C54.0951 24.178 53.0467 24.6529 51.8805 25.0401C51.8458 25.0538 51.8093 25.063 51.7773 25.0749L51.7764 25.0758ZM54.3855 13.6666C53.9956 13.2767 53.4778 13.084 52.8312 13.084C52.1846 13.084 51.6714 13.2767 51.2906 13.6666C50.9125 14.0538 50.7216 14.5726 50.7216 15.2182V24.3552C50.8312 24.3251 50.939 24.2931 51.0467 24.2593C51.4476 24.1333 51.833 23.9981 52.202 23.8493C52.2887 23.8173 52.3737 23.7826 52.4586 23.7461C53.4303 23.3406 54.2814 22.8612 54.9664 22.336V15.2182C54.9664 14.5717 54.7718 14.0538 54.3837 13.6666H54.3855ZM39.6221 24.1634C40.1399 24.3927 40.7271 24.5872 41.3664 24.7415C41.3874 24.7461 41.4102 24.7534 41.4303 24.758C41.6522 24.8109 41.8796 24.8566 42.1116 24.8977C42.1983 24.9141 42.286 24.9296 42.3727 24.9433V15.2191C42.3727 14.5726 42.1846 14.0548 41.8038 13.6675C41.4257 13.2776 40.9125 13.0849 40.2659 13.0849C39.6193 13.0849 39.1015 13.2776 38.7116 13.6675C38.3243 14.0548 38.1289 14.5735 38.1289 15.2191V23.2475C38.328 23.4237 38.5554 23.5863 38.8056 23.7406C39.0558 23.8922 39.328 24.0338 39.6221 24.1643V24.1634Z" fill="url(#paint0_linear_1198_4446)"/>
<path d="M38.7383 9.69336C41.7319 11.255 44.4716 13.6285 46.5428 16.2797C48.6141 13.6294 51.3538 11.2559 54.3474 9.69336C51.468 10.1025 48.7885 11.2294 46.5428 12.9271C44.2963 11.2285 41.6177 10.1016 38.7383 9.69336Z" fill="url(#paint1_linear_1198_4446)"/>
<path opacity="0.7" d="M46.543 16.2777C48.6142 13.6275 51.3539 11.254 54.3475 9.69141C51.5996 10.8594 48.9768 12.464 46.543 14.7288V16.2777Z" fill="url(#paint2_radial_1198_4446)"/>
<path opacity="0.7" d="M46.5428 16.2777V14.7288C44.1091 12.464 41.4862 10.8594 38.7383 9.69141C41.7319 11.253 44.4716 13.6266 46.5428 16.2777Z" fill="url(#paint3_radial_1198_4446)"/>
<path d="M46.5417 5.20312C44.991 5.20312 43.7344 6.45975 43.7344 8.01043C43.7344 9.56112 44.991 10.8177 46.5417 10.8177C48.0924 10.8177 49.349 9.56112 49.349 8.01043C49.349 6.45975 48.0924 5.20312 46.5417 5.20312Z" fill="url(#paint4_linear_1198_4446)"/>
<path d="M46.5422 5.74609C45.291 5.74609 44.2773 6.75979 44.2773 8.01093C44.2773 9.26208 45.291 7.28491 46.5422 7.28491C47.7933 7.28491 48.807 9.26208 48.807 8.01093C48.807 6.75979 47.7933 5.74609 46.5422 5.74609Z" fill="url(#paint5_linear_1198_4446)"/>
<path d="M52.2414 2.92877L47.1993 0.183562C46.75 -0.0611872 46.2487 -0.0611872 45.7993 0.183562L40.7573 2.92877C40.4067 3.11963 40.4231 3.63105 40.7847 3.8L43.0888 4.87123L43.6916 3.18813V5.85662C44.3628 4.98447 45.3939 4.47306 46.4989 4.47306C47.6039 4.47306 48.6359 4.98447 49.3062 5.85662V3.18813L49.9089 4.87123L52.213 3.8C52.5747 3.63196 52.5911 3.12055 52.2404 2.92877H52.2414Z" fill="url(#paint6_radial_1198_4446)"/>
<path d="M57.5537 19.9506C57.5792 19.8301 57.5948 19.7114 57.6021 19.5899C57.677 18.3707 56.845 17.3223 55.3993 16.5625C55.8633 16.9123 56.2158 17.3077 56.4349 17.7415C56.6313 18.1214 56.7217 18.5305 56.6952 18.9634C56.6916 19.0082 56.6879 19.0538 56.6833 19.0995C56.6742 19.1735 56.6623 19.2465 56.6459 19.3196C56.5655 19.7123 56.3911 20.0986 56.1336 20.473C55.9893 20.6867 55.8167 20.8967 55.6194 21.1013C55.4578 21.2684 55.2779 21.4337 55.0852 21.5945C54.361 22.1954 53.4231 22.7433 52.3327 23.199C52.2477 23.2346 52.1628 23.2684 52.0751 23.3022C51.7071 23.4502 51.3208 23.5862 50.9217 23.7114C50.2286 23.9296 49.4934 24.1123 48.7263 24.2547C48.3802 24.3205 48.0267 24.3771 47.6678 24.4246C47.2934 24.4757 46.9135 24.5141 46.5299 24.5442C45.4423 24.6283 44.4039 24.6237 43.4359 24.5406C43.3254 24.5305 43.2149 24.5205 43.1062 24.5086C42.7199 24.4675 42.3454 24.4146 41.9856 24.3497C41.7528 24.3086 41.5263 24.262 41.3044 24.21C41.2824 24.2045 41.2596 24.199 41.2386 24.1935C40.5984 24.0392 40.013 23.8447 39.4961 23.6155C39.2021 23.4849 38.9281 23.3433 38.6779 23.1899C37.561 22.5059 36.918 21.6091 36.9409 20.5826C36.9409 20.5525 36.9409 20.5223 36.9436 20.4913C36.9537 20.3369 36.9774 20.1817 37.0149 20.0292C37.0194 20.0091 37.0249 19.9908 37.0304 19.9707C37.0459 19.9095 37.0642 19.8502 37.0861 19.789C37.1984 19.4648 37.3747 19.1451 37.6075 18.8337C36.9783 19.4356 36.5528 20.0803 36.382 20.7406C36.3409 20.905 36.3135 21.0703 36.3044 21.2374C36.3025 21.2648 36.3025 21.294 36.3016 21.3223C36.2888 21.8127 36.424 22.2739 36.6852 22.6986C37.1171 23.4027 37.8989 24.0082 38.9445 24.4767C39.2486 24.6146 39.5756 24.7415 39.9235 24.8538C40.4176 25.0155 40.9537 25.1515 41.5235 25.2602C41.5491 25.2657 41.5765 25.2703 41.6039 25.2748C41.9007 25.3296 42.2066 25.3771 42.5217 25.4164C43.0167 25.4794 43.5345 25.5223 44.0678 25.5442C44.1555 25.5488 44.2432 25.5506 44.3317 25.5534H44.3336C45.0751 25.5753 45.8496 25.5579 46.6459 25.4958C46.9765 25.4712 47.3025 25.4383 47.6258 25.3981C47.7135 25.3881 47.7993 25.378 47.8861 25.3662C47.8961 25.3643 47.908 25.3634 47.918 25.3616C48.782 25.2456 49.6167 25.083 50.4103 24.883C50.8359 24.7744 51.2486 24.6556 51.6477 24.5269C51.6815 24.5159 51.7171 24.505 51.7509 24.4922C53.0523 24.0611 54.2012 23.5205 55.1299 22.9095C55.2751 22.8127 55.4167 22.7159 55.5509 22.6155C56.1783 22.1534 56.6806 21.6547 57.0322 21.136C57.2934 20.7488 57.4706 20.3506 57.5527 19.9488" fill="url(#paint7_radial_1198_4446)"/>
<path d="M1.02694 32.251C0.675342 31.9003 0.5 31.4007 0.5 30.7532V15.2473C0.5 14.5998 0.675342 14.1012 1.02694 13.7496C1.37854 13.3989 1.87717 13.2227 2.52466 13.2227H12.3438C13.7119 13.2227 14.3968 13.7779 14.3968 14.8866C14.3968 15.9953 13.7128 16.5788 12.3438 16.5788H4.71553V21.1551H11.7886C13.1566 21.1551 13.8416 21.7195 13.8416 22.8473C13.8416 23.9752 13.1575 24.5112 11.7886 24.5112H4.71553V29.4208H12.3429C13.711 29.4208 14.3959 29.9852 14.3959 31.1131C14.3959 32.2409 13.7119 32.777 12.3429 32.777H2.52466C1.87717 32.777 1.37763 32.6016 1.02694 32.25V32.251Z" fill="url(#paint8_linear_1198_4446)"/>
<path d="M17.7105 32.251C17.3589 31.9003 17.1836 31.4007 17.1836 30.7533V15.2473C17.1836 14.5998 17.3589 14.1012 17.7105 13.7496C18.0621 13.3989 18.5608 13.2227 19.2083 13.2227H24.7836C26.9096 13.2227 28.7407 13.6108 30.2758 14.388C31.8101 15.1642 32.9845 16.2838 33.7982 17.7441C34.6119 19.2053 35.0183 20.9523 35.0183 22.987C35.0183 25.0217 34.6156 26.7733 33.8119 28.2437C33.0073 29.714 31.8375 30.8373 30.3032 31.6135C28.7681 32.3898 26.9279 32.7788 24.7836 32.7788H19.2083C18.5608 32.7788 18.0612 32.6035 17.7105 32.2519V32.251ZM24.4786 29.2829C28.6393 29.2829 30.7197 27.1843 30.7197 22.9861C30.7197 18.788 28.6393 16.7176 24.4786 16.7176H21.5105V29.2829H24.4786Z" fill="url(#paint9_linear_1198_4446)"/>
<path d="M74.8245 30.949C74.8245 31.4851 74.6162 31.9527 74.2007 32.3499C73.7843 32.7481 73.3085 32.9463 72.7724 32.9463C72.2363 32.9463 71.7459 32.7152 71.3578 32.2531L66.1432 25.8732L60.8729 32.2531C60.4656 32.7152 59.9943 32.9463 59.4582 32.9463C58.9222 32.9463 58.4738 32.7481 58.0573 32.3499C57.6409 31.9527 57.4336 31.486 57.4336 30.949C57.4336 30.4869 57.5998 30.0613 57.9331 29.6732L63.619 22.9052L58.1267 16.3317C57.7751 15.9253 57.5998 15.4997 57.5998 15.0559C57.5998 14.5198 57.808 14.0531 58.2236 13.6549C58.64 13.2577 59.1067 13.0586 59.6245 13.0586C60.1788 13.0586 60.6601 13.2988 61.0665 13.7801L66.1423 19.9097L71.1624 13.7801C71.5688 13.2997 72.05 13.0586 72.6044 13.0586C73.1222 13.0586 73.5888 13.2577 74.0053 13.6549C74.4217 14.0531 74.629 14.5198 74.629 15.0559C74.629 15.518 74.4628 15.9435 74.1295 16.3317L68.6372 22.9052L74.2957 29.6732C74.6464 30.0805 74.8226 30.5052 74.8226 30.949H74.8245Z" fill="url(#paint10_linear_1198_4446)"/>
<path d="M95.4599 31.0311C95.4599 31.5489 95.2516 31.9881 94.8361 32.3489C94.4197 32.7096 93.9439 32.8895 93.4078 32.8895C93.0562 32.8895 92.7238 32.7927 92.4087 32.5982C92.0937 32.4037 91.8544 32.1133 91.6873 31.7242L90.2169 28.4512H80.8133L79.343 31.7242C79.1768 32.1123 78.9411 32.4037 78.6361 32.5982C78.3311 32.7927 77.9932 32.8895 77.6233 32.8895C77.0864 32.8895 76.606 32.7096 76.1813 32.3489C75.7558 31.9881 75.543 31.5489 75.543 31.0311C75.543 30.7726 75.6169 30.4767 75.7649 30.1434L83.2544 14.4165C83.458 13.9726 83.7631 13.6356 84.1695 13.4037C84.5758 13.1726 85.0105 13.0566 85.4726 13.0566C85.9347 13.0566 86.3968 13.1772 86.8042 13.4174C87.2105 13.6576 87.5256 13.9909 87.7475 14.4155L95.237 30.1425C95.385 30.4758 95.4589 30.7717 95.4589 31.0302L95.4599 31.0311ZM88.7475 25.179L85.5302 17.9671L82.2845 25.179H88.7475Z" fill="url(#paint11_linear_1198_4446)"/>
<path d="M2.1868 38.8402C1.99319 38.8402 1.80415 38.8255 1.61876 38.7963C1.43337 38.7671 1.25894 38.7214 1.09547 38.6602C0.931088 38.5991 0.784056 38.5251 0.653463 38.4365C0.590449 38.3899 0.547527 38.3379 0.523782 38.2785C0.500951 38.2201 0.494559 38.1616 0.504604 38.105C0.51465 38.0484 0.539307 37.9991 0.57675 37.957C0.614193 37.915 0.660769 37.8886 0.715563 37.8785C0.770358 37.8685 0.831545 37.8858 0.898212 37.9324C1.08725 38.0548 1.28725 38.1433 1.4973 38.2009C1.70735 38.2575 1.93657 38.2858 2.18497 38.2858C2.54205 38.2858 2.80598 38.2219 2.97675 38.0931C3.14753 37.9644 3.23246 37.7981 3.23246 37.5918C3.23246 37.4237 3.17127 37.2904 3.04981 37.1918C2.92744 37.0931 2.72378 37.0137 2.43794 36.9552L1.76305 36.8164C1.36396 36.7324 1.06625 36.5936 0.870814 36.4C0.675381 36.2064 0.577664 35.9461 0.577664 35.6182C0.577664 35.421 0.61876 35.2402 0.700951 35.0758C0.783143 34.9114 0.897298 34.7698 1.04433 34.6502C1.19136 34.5306 1.36762 34.4392 1.57401 34.3762C1.77949 34.3132 2.00506 34.2812 2.2489 34.2812C2.50917 34.2812 2.75483 34.315 2.98406 34.3817C3.21328 34.4493 3.41785 34.5525 3.59867 34.6904C3.65346 34.7278 3.68999 34.7753 3.70917 34.8319C3.72835 34.8886 3.732 34.9443 3.72196 34.9991C3.711 35.0539 3.68725 35.1004 3.64981 35.1379C3.61237 35.1753 3.56397 35.1981 3.50461 35.2036C3.44525 35.2091 3.3804 35.1899 3.30917 35.1434C3.1457 35.0338 2.97767 34.9552 2.8078 34.9068C2.63794 34.8584 2.4489 34.8347 2.24342 34.8347C2.03794 34.8347 1.85712 34.8666 1.70369 34.9297C1.55027 34.9927 1.43246 35.0813 1.35027 35.1945C1.26807 35.3077 1.22698 35.4429 1.22698 35.5981C1.22698 35.7744 1.2836 35.916 1.39775 36.021C1.511 36.126 1.70004 36.2064 1.96579 36.2602L2.63429 36.3991C3.05438 36.4876 3.36762 36.6237 3.57401 36.8091C3.77949 36.9945 3.88269 37.2402 3.88269 37.547C3.88269 37.7443 3.84251 37.9223 3.76305 38.0803C3.68269 38.2383 3.56945 38.3735 3.42241 38.4876C3.27538 38.6009 3.0973 38.6886 2.88908 38.7497C2.68086 38.8109 2.44616 38.8411 2.18588 38.8411L2.1868 38.8402Z" fill="#F89A21"/>
<path d="M6.22837 38.8394C5.97631 38.8394 5.76353 38.7956 5.59092 38.707C5.41832 38.6184 5.29047 38.4887 5.20645 38.3161C5.12243 38.1435 5.08042 37.9335 5.08042 37.6851V36.1965H4.70234C4.61832 36.1965 4.55257 36.1746 4.50691 36.1307C4.46033 36.0869 4.4375 36.0266 4.4375 35.9508C4.4375 35.8714 4.46033 35.8102 4.50691 35.7682C4.55348 35.7262 4.61832 35.7052 4.70234 35.7052H5.08042V35.0558C5.08042 34.9508 5.10873 34.8704 5.16535 34.8166C5.22198 34.7618 5.30143 34.7344 5.40188 34.7344C5.50234 34.7344 5.58088 34.7618 5.63567 34.8166C5.69047 34.8714 5.71787 34.9508 5.71787 35.0558V35.7052H6.45577C6.53978 35.7052 6.60462 35.7262 6.6512 35.7682C6.69777 35.8102 6.72061 35.8714 6.72061 35.9508C6.72061 36.0266 6.69777 36.0869 6.6512 36.1307C6.60462 36.1746 6.53978 36.1965 6.45577 36.1965H5.71787V37.6348C5.71787 37.8577 5.76535 38.0257 5.85942 38.1399C5.95439 38.2531 6.10873 38.3106 6.32334 38.3106C6.39914 38.3106 6.4649 38.3033 6.52243 38.2887C6.57905 38.2741 6.62654 38.265 6.66398 38.2604C6.71056 38.2604 6.748 38.2759 6.77723 38.3079C6.80645 38.3399 6.82106 38.3992 6.82106 38.4878C6.82106 38.5508 6.80919 38.6102 6.78636 38.6641C6.76353 38.7188 6.72243 38.7545 6.66307 38.7709C6.61284 38.7873 6.54435 38.8038 6.4585 38.8184C6.37266 38.833 6.29595 38.8403 6.22837 38.8403V38.8394Z" fill="#F89A21"/>
<path d="M8.69801 38.8402C8.44961 38.8402 8.24322 38.7936 8.07701 38.7014C7.9108 38.6091 7.7866 38.4712 7.70532 38.2886C7.62313 38.1059 7.58203 37.8758 7.58203 37.5982V35.9836C7.58203 35.874 7.60943 35.7936 7.66422 35.7406C7.71902 35.6877 7.79664 35.6621 7.89801 35.6621C7.99938 35.6621 8.07792 35.6886 8.13454 35.7406C8.19116 35.7927 8.21947 35.874 8.21947 35.9836V37.6046C8.21947 37.853 8.2697 38.0356 8.37107 38.1534C8.47153 38.2712 8.63135 38.3297 8.85053 38.3297C9.08979 38.3297 9.28431 38.2484 9.43409 38.0868C9.58294 37.9251 9.65783 37.7114 9.65783 37.4466V35.9836C9.65783 35.874 9.68523 35.7936 9.74002 35.7406C9.79482 35.6877 9.87427 35.6621 9.97929 35.6621C10.0843 35.6621 10.1583 35.6886 10.2131 35.7406C10.2679 35.7936 10.2953 35.874 10.2953 35.9836V38.5069C10.2953 38.7215 10.1921 38.8283 9.9866 38.8283C9.88979 38.8283 9.81399 38.8 9.7592 38.7434C9.70441 38.6868 9.67701 38.6082 9.67701 38.5069V37.9708L9.7592 38.1096C9.67518 38.3452 9.54094 38.526 9.35555 38.6521C9.17016 38.7781 8.95189 38.8411 8.69984 38.8411L8.69801 38.8402Z" fill="#F89A21"/>
<path d="M12.739 38.84C12.4696 38.84 12.233 38.7761 12.0294 38.6473C11.8257 38.5195 11.6668 38.3341 11.5536 38.0921C11.4403 37.85 11.3828 37.5679 11.3828 37.2437C11.3828 36.9195 11.4394 36.6281 11.5536 36.3925C11.6668 36.1569 11.8257 35.9742 12.0294 35.8437C12.233 35.7131 12.4696 35.6482 12.739 35.6482C13.0084 35.6482 13.2403 35.714 13.4358 35.8473C13.6312 35.9797 13.7627 36.1578 13.8303 36.3806H13.7609V34.6144C13.7609 34.5094 13.7883 34.43 13.8431 34.3752C13.8979 34.3204 13.9755 34.293 14.0769 34.293C14.1782 34.293 14.2568 34.3204 14.3134 34.3752C14.37 34.43 14.3983 34.5094 14.3983 34.6144V38.5067C14.3983 38.608 14.3709 38.6866 14.3161 38.7432C14.2614 38.7998 14.1837 38.8281 14.0824 38.8281C13.981 38.8281 13.9034 38.7998 13.8486 38.7432C13.7938 38.6866 13.7664 38.608 13.7664 38.5067V37.9514L13.8358 38.0902C13.7682 38.3176 13.6367 38.4994 13.4413 38.6354C13.2458 38.7724 13.0111 38.84 12.7381 38.84H12.739ZM12.9034 38.3487C13.076 38.3487 13.2266 38.3067 13.3572 38.2226C13.4878 38.1386 13.5892 38.0144 13.6632 37.851C13.7372 37.6866 13.7737 37.4847 13.7737 37.2455C13.7737 36.8838 13.6942 36.6108 13.5344 36.4254C13.3746 36.24 13.1645 36.1478 12.9034 36.1478C12.7271 36.1478 12.5728 36.1889 12.4431 36.2711C12.3134 36.3532 12.2111 36.4756 12.1371 36.64C12.0632 36.8035 12.0266 37.0062 12.0266 37.2455C12.0266 37.6026 12.1061 37.8765 12.2659 38.0656C12.4257 38.2546 12.6376 38.3496 12.9034 38.3496V38.3487Z" fill="#F89A21"/>
<path d="M16.398 39.9643C16.3222 39.9643 16.2601 39.9442 16.2117 39.904C16.1633 39.8638 16.1359 39.8118 16.1295 39.746C16.1231 39.6802 16.135 39.6108 16.1642 39.535L16.5934 38.5697V38.841L15.4135 36.0967C15.3843 36.0209 15.3733 35.9497 15.3816 35.8821C15.3898 35.8145 15.4217 35.7615 15.4765 35.7213C15.5313 35.6812 15.6044 35.6611 15.6975 35.6611C15.777 35.6611 15.84 35.6802 15.8866 35.7177C15.9332 35.7551 15.9752 35.8209 16.0126 35.9131L16.9651 38.2656H16.7889L17.7542 35.9131C17.7916 35.8163 17.8364 35.7506 17.8866 35.714C17.9368 35.6784 18.0062 35.6602 18.0948 35.6602C18.1706 35.6602 18.23 35.6802 18.2747 35.7204C18.3185 35.7606 18.3459 35.8127 18.3569 35.8784C18.3679 35.9433 18.356 36.0145 18.3222 36.0894L16.745 39.7159C16.703 39.8127 16.6555 39.8775 16.6035 39.9113C16.5505 39.9451 16.4829 39.9615 16.3989 39.9615L16.398 39.9643Z" fill="#F89A21"/>
<path d="M22.6854 38.8394C22.4333 38.8394 22.2206 38.7956 22.048 38.707C21.8754 38.6184 21.7475 38.4887 21.6635 38.3161C21.5795 38.1435 21.5375 37.9335 21.5375 37.6851V36.1965H21.1594C21.0754 36.1965 21.0096 36.1746 20.9639 36.1307C20.9174 36.0869 20.8945 36.0266 20.8945 35.9508C20.8945 35.8714 20.9174 35.8102 20.9639 35.7682C21.0105 35.7262 21.0754 35.7052 21.1594 35.7052H21.5375V35.0558C21.5375 34.9508 21.5658 34.8704 21.6224 34.8166C21.679 34.7618 21.7585 34.7344 21.8589 34.7344C21.9594 34.7344 22.0379 34.7618 22.0927 34.8166C22.1475 34.8714 22.1749 34.9508 22.1749 35.0558V35.7052H22.9128C22.9968 35.7052 23.0617 35.7262 23.1082 35.7682C23.1548 35.8102 23.1776 35.8714 23.1776 35.9508C23.1776 36.0266 23.1548 36.0869 23.1082 36.1307C23.0617 36.1746 22.9968 36.1965 22.9128 36.1965H22.1749V37.6348C22.1749 37.8577 22.2224 38.0257 22.3164 38.1399C22.4114 38.2531 22.5658 38.3106 22.7804 38.3106C22.8562 38.3106 22.9219 38.3033 22.9795 38.2887C23.0361 38.2741 23.0836 38.265 23.121 38.2604C23.1676 38.2604 23.205 38.2759 23.2343 38.3079C23.2635 38.3399 23.2781 38.3992 23.2781 38.4878C23.2781 38.5508 23.2662 38.6102 23.2434 38.6641C23.2206 38.7188 23.1795 38.7545 23.1201 38.7709C23.0699 38.7873 23.0014 38.8038 22.9155 38.8184C22.8297 38.833 22.753 38.8403 22.6854 38.8403V38.8394Z" fill="#F89A21"/>
<path d="M24.4255 38.8281C24.3242 38.8281 24.2465 38.7998 24.1917 38.7432C24.137 38.6866 24.1096 38.608 24.1096 38.5067V34.6144C24.1096 34.5094 24.137 34.43 24.1917 34.3752C24.2465 34.3204 24.3242 34.293 24.4255 34.293C24.5269 34.293 24.6054 34.3204 24.6621 34.3752C24.7187 34.43 24.747 34.5094 24.747 34.6144V36.3615H24.6584C24.7507 36.1258 24.8959 35.9487 25.094 35.8281C25.2913 35.7085 25.5187 35.6482 25.7753 35.6482C26.0319 35.6482 26.2219 35.693 26.3844 35.7834C26.5461 35.8738 26.6675 36.0108 26.747 36.1934C26.8265 36.3761 26.8666 36.6062 26.8666 36.8838V38.5048C26.8666 38.6062 26.8392 38.6847 26.7844 38.7414C26.7297 38.798 26.652 38.8263 26.5507 38.8263C26.4493 38.8263 26.3653 38.798 26.3114 38.7414C26.2575 38.6847 26.2292 38.6062 26.2292 38.5048V36.9213C26.2292 36.6564 26.1771 36.4628 26.0749 36.3414C25.9717 36.2199 25.8109 36.1587 25.5927 36.1587C25.336 36.1587 25.1315 36.2382 24.9781 36.398C24.8246 36.5578 24.7479 36.7724 24.7479 37.0409V38.5039C24.7479 38.7185 24.6411 38.8254 24.4265 38.8254L24.4255 38.8281Z" fill="#F89A21"/>
<path d="M29.5658 38.8411C29.2297 38.8411 28.9402 38.7772 28.6982 38.6484C28.4562 38.5206 28.269 38.337 28.1366 38.0996C28.0042 37.8621 27.9375 37.579 27.9375 37.2512C27.9375 36.9233 28.0023 36.6521 28.1329 36.4119C28.2635 36.1726 28.4416 35.9854 28.669 35.8503C28.8964 35.716 29.1548 35.6484 29.4453 35.6484C29.6599 35.6484 29.8507 35.6831 30.0188 35.7525C30.1868 35.822 30.3311 35.9233 30.4507 36.0557C30.5704 36.1882 30.6608 36.3489 30.722 36.5379C30.7832 36.727 30.8133 36.9398 30.8133 37.1754C30.8133 37.2466 30.7923 37.3005 30.7503 37.3361C30.7083 37.3717 30.6453 37.39 30.5612 37.39H28.4416V36.9991H30.3841L30.2772 37.0877C30.2772 36.8777 30.2462 36.6987 30.1859 36.5516C30.1247 36.4046 30.0343 36.2923 29.9147 36.2146C29.795 36.137 29.6462 36.0978 29.4699 36.0978C29.2727 36.0978 29.1046 36.1443 28.9685 36.2366C28.8316 36.3288 28.7275 36.4576 28.6562 36.621C28.585 36.7854 28.5494 36.9763 28.5494 37.1955V37.2329C28.5494 37.6028 28.6361 37.8813 28.8115 38.0685C28.9859 38.2557 29.2389 38.3489 29.5713 38.3489C29.6973 38.3489 29.8306 38.3325 29.9713 38.2987C30.1119 38.2649 30.2453 38.2083 30.3722 38.1288C30.4434 38.0868 30.5083 38.0676 30.5649 38.0722C30.6215 38.0767 30.6681 38.095 30.7037 38.1288C30.7393 38.1626 30.7612 38.2046 30.7695 38.2548C30.7777 38.3051 30.7695 38.3571 30.7439 38.4092C30.7183 38.4621 30.6745 38.5087 30.6115 38.5507C30.4681 38.6475 30.3028 38.7197 30.1128 38.7681C29.9238 38.8165 29.7402 38.8411 29.564 38.8411H29.5658Z" fill="#F89A21"/>
<path d="M32.2043 38.8276C32.0992 38.8276 32.0189 38.7993 31.965 38.7427C31.9111 38.686 31.8828 38.6075 31.8828 38.5061V35.9828C31.8828 35.8778 31.9102 35.7984 31.965 35.7436C32.0198 35.6888 32.0956 35.6614 32.1924 35.6614C32.2892 35.6614 32.3696 35.6888 32.4225 35.7436C32.4755 35.7984 32.5011 35.8778 32.5011 35.9828V36.4431H32.4381C32.5056 36.1911 32.6298 35.9993 32.8107 35.8687C32.9915 35.7381 33.2225 35.6632 33.5047 35.6413C33.5805 35.6367 33.6408 35.6559 33.6846 35.6979C33.7285 35.7399 33.7531 35.8048 33.7568 35.8933C33.765 35.9819 33.7458 36.0522 33.7002 36.1043C33.6536 36.1573 33.5824 36.1874 33.4856 36.1956L33.3659 36.2084C33.0929 36.234 32.8846 36.3198 32.7413 36.4669C32.5979 36.6139 32.5266 36.8157 32.5266 37.0723V38.5043C32.5266 38.6057 32.5002 38.6842 32.4481 38.7408C32.3951 38.7974 32.3148 38.8258 32.2052 38.8258L32.2043 38.8276Z" fill="#F89A21"/>
<path d="M36.0189 38.8411C35.6829 38.8411 35.3934 38.7772 35.1514 38.6484C34.9093 38.5206 34.7221 38.337 34.5897 38.0996C34.4573 37.8621 34.3906 37.579 34.3906 37.2512C34.3906 36.9233 34.4555 36.6521 34.5861 36.4119C34.7167 36.1726 34.8947 35.9854 35.1221 35.8503C35.3495 35.716 35.608 35.6484 35.8984 35.6484C36.113 35.6484 36.3039 35.6831 36.4719 35.7525C36.6399 35.822 36.7842 35.9233 36.9039 36.0557C37.0235 36.1882 37.1139 36.3489 37.1751 36.5379C37.2363 36.727 37.2664 36.9398 37.2664 37.1754C37.2664 37.2466 37.2454 37.3005 37.2034 37.3361C37.1614 37.3717 37.0984 37.39 37.0144 37.39H34.8947V36.9991H36.8372L36.7304 37.0877C36.7304 36.8777 36.6993 36.6987 36.639 36.5516C36.5778 36.4046 36.4874 36.2923 36.3678 36.2146C36.2482 36.137 36.0993 36.0978 35.923 36.0978C35.7258 36.0978 35.5577 36.1443 35.4217 36.2366C35.2847 36.3288 35.1806 36.4576 35.1093 36.621C35.0381 36.7854 35.0025 36.9763 35.0025 37.1955V37.2329C35.0025 37.6028 35.0893 37.8813 35.2646 38.0685C35.439 38.2557 35.692 38.3489 36.0244 38.3489C36.1504 38.3489 36.2838 38.3325 36.4244 38.2987C36.5651 38.2649 36.6984 38.2083 36.8253 38.1288C36.8966 38.0868 36.9614 38.0676 37.018 38.0722C37.0746 38.0767 37.1212 38.095 37.1568 38.1288C37.1925 38.1626 37.2144 38.2046 37.2226 38.2548C37.2308 38.3051 37.2226 38.3571 37.197 38.4092C37.1714 38.4621 37.1276 38.5087 37.0646 38.5507C36.9212 38.6475 36.7559 38.7197 36.566 38.7681C36.3769 38.8165 36.1934 38.8411 36.0171 38.8411H36.0189Z" fill="#F89A21"/>
<path d="M38.7177 39.4224C38.6712 39.4809 38.6218 39.5147 38.5698 39.5229C38.5168 39.5311 38.4721 39.5211 38.4337 39.4909C38.3963 39.4617 38.3744 39.4206 38.3707 39.3676C38.3661 39.3147 38.3899 39.2571 38.4401 39.1941C38.5159 39.1019 38.5671 39.006 38.5944 38.9074C38.6218 38.8087 38.6355 38.7211 38.6355 38.6453L38.6611 38.8087C38.5351 38.8087 38.4328 38.7722 38.3552 38.6982C38.2776 38.6243 38.2383 38.5265 38.2383 38.4051C38.2383 38.2836 38.2739 38.1914 38.3451 38.1183C38.4164 38.0443 38.5132 38.0078 38.6355 38.0078C38.7579 38.0078 38.862 38.0507 38.9351 38.1375C39.0091 38.2233 39.0456 38.3466 39.0456 38.5064C39.0456 38.5987 39.0365 38.6955 39.0173 38.7969C38.9981 38.8973 38.9661 39.0005 38.9196 39.1055C38.873 39.2106 38.8063 39.3156 38.7177 39.4206V39.4224Z" fill="#F89A21"/>
<path d="M43.8079 38.8402C43.6143 38.8402 43.4252 38.8255 43.2399 38.7963C43.0545 38.7671 42.88 38.7214 42.7166 38.6602C42.5522 38.5991 42.4052 38.5251 42.2746 38.4365C42.2115 38.3899 42.1686 38.3379 42.1449 38.2785C42.122 38.2201 42.1157 38.1616 42.1257 38.105C42.1357 38.0484 42.1604 37.9991 42.1978 37.957C42.2353 37.915 42.2819 37.8886 42.3367 37.8785C42.3915 37.8685 42.4526 37.8858 42.5193 37.9324C42.7083 38.0548 42.9083 38.1433 43.1184 38.2009C43.3284 38.2575 43.5577 38.2858 43.8061 38.2858C44.1631 38.2858 44.4271 38.2219 44.5978 38.0931C44.7686 37.9644 44.8536 37.7981 44.8536 37.5918C44.8536 37.4237 44.7924 37.2904 44.6709 37.1918C44.5485 37.0931 44.3449 37.0137 44.059 36.9552L43.3841 36.8164C42.9851 36.7324 42.6873 36.5936 42.4919 36.4C42.2965 36.2064 42.1988 35.9461 42.1988 35.6182C42.1988 35.421 42.2399 35.2402 42.322 35.0758C42.4042 34.9114 42.5184 34.7698 42.6654 34.6502C42.8125 34.5306 42.9887 34.4392 43.1951 34.3762C43.4006 34.3132 43.6262 34.2812 43.87 34.2812C44.1303 34.2812 44.3759 34.315 44.6051 34.3817C44.8344 34.4493 45.0389 34.5525 45.2198 34.6904C45.2746 34.7278 45.3111 34.7753 45.3303 34.8319C45.3494 34.8886 45.3531 34.9443 45.3431 34.9991C45.3321 35.0539 45.3083 35.1004 45.2709 35.1379C45.2335 35.1753 45.1851 35.1981 45.1257 35.2036C45.0663 35.2091 45.0015 35.1899 44.9303 35.1434C44.7668 35.0338 44.5988 34.9552 44.4289 34.9068C44.259 34.8584 44.07 34.8347 43.8645 34.8347C43.659 34.8347 43.4782 34.8666 43.3248 34.9297C43.1714 34.9927 43.0536 35.0813 42.9714 35.1945C42.8892 35.3077 42.8481 35.4429 42.8481 35.5981C42.8481 35.7744 42.9047 35.916 43.0188 36.021C43.1321 36.126 43.3211 36.2064 43.5869 36.2602L44.2554 36.3991C44.6755 36.4876 44.9887 36.6237 45.1951 36.8091C45.4006 36.9945 45.5038 37.2402 45.5038 37.547C45.5038 37.7443 45.4636 37.9223 45.3841 38.0803C45.3038 38.2383 45.1905 38.3735 45.0435 38.4876C44.8965 38.6009 44.7184 38.6886 44.5102 38.7497C44.302 38.8109 44.0673 38.8411 43.807 38.8411L43.8079 38.8402Z" fill="#F89A21"/>
<path d="M47.8495 38.8394C47.5974 38.8394 47.3846 38.7956 47.212 38.707C47.0394 38.6184 46.9116 38.4887 46.8275 38.3161C46.7435 38.1435 46.7015 37.9335 46.7015 37.6851V36.1965H46.3234C46.2394 36.1965 46.1737 36.1746 46.128 36.1307C46.0814 36.0869 46.0586 36.0266 46.0586 35.9508C46.0586 35.8714 46.0814 35.8102 46.128 35.7682C46.1746 35.7262 46.2394 35.7052 46.3234 35.7052H46.7015V35.0558C46.7015 34.9508 46.7298 34.8704 46.7864 34.8166C46.8431 34.7618 46.9225 34.7344 47.023 34.7344C47.1234 34.7344 47.202 34.7618 47.2568 34.8166C47.3116 34.8714 47.339 34.9508 47.339 35.0558V35.7052H48.0769C48.1609 35.7052 48.2257 35.7262 48.2723 35.7682C48.3189 35.8102 48.3417 35.8714 48.3417 35.9508C48.3417 36.0266 48.3189 36.0869 48.2723 36.1307C48.2257 36.1746 48.1609 36.1965 48.0769 36.1965H47.339V37.6348C47.339 37.8577 47.3864 38.0257 47.4805 38.1399C47.5755 38.2531 47.7298 38.3106 47.9444 38.3106C48.0202 38.3106 48.086 38.3033 48.1435 38.2887C48.2001 38.2741 48.2476 38.265 48.2851 38.2604C48.3317 38.2604 48.3691 38.2759 48.3983 38.3079C48.4275 38.3399 48.4422 38.3992 48.4422 38.4878C48.4422 38.5508 48.4303 38.6102 48.4074 38.6641C48.3846 38.7188 48.3435 38.7545 48.2842 38.7709C48.2339 38.7873 48.1654 38.8038 48.0796 38.8184C47.9938 38.833 47.917 38.8403 47.8495 38.8403V38.8394Z" fill="#F89A21"/>
<path d="M50.3152 38.8402C50.0668 38.8402 49.8604 38.7936 49.6942 38.7014C49.528 38.6091 49.4038 38.4712 49.3225 38.2886C49.2403 38.1059 49.1992 37.8758 49.1992 37.5982V35.9836C49.1992 35.874 49.2266 35.7936 49.2814 35.7406C49.3362 35.6877 49.4138 35.6621 49.5152 35.6621C49.6166 35.6621 49.6951 35.6886 49.7517 35.7406C49.8084 35.7927 49.8367 35.874 49.8367 35.9836V37.6046C49.8367 37.853 49.8869 38.0356 49.9883 38.1534C50.0887 38.2712 50.2485 38.3297 50.4677 38.3297C50.707 38.3297 50.9015 38.2484 51.0513 38.0868C51.2001 37.9251 51.275 37.7114 51.275 37.4466V35.9836C51.275 35.874 51.3024 35.7936 51.3572 35.7406C51.412 35.6877 51.4915 35.6621 51.5965 35.6621C51.7015 35.6621 51.7755 35.6886 51.8303 35.7406C51.8851 35.7936 51.9125 35.874 51.9125 35.9836V38.5069C51.9125 38.7215 51.8093 38.8283 51.6038 38.8283C51.507 38.8283 51.4312 38.8 51.3764 38.7434C51.3216 38.6868 51.2942 38.6082 51.2942 38.5069V37.9708L51.3764 38.1096C51.2924 38.3452 51.1581 38.526 50.9727 38.6521C50.7874 38.7781 50.5691 38.8411 50.317 38.8411L50.3152 38.8402Z" fill="#F89A21"/>
<path d="M54.3601 38.84C54.0907 38.84 53.8541 38.7761 53.6505 38.6473C53.4468 38.5195 53.2879 38.3341 53.1747 38.0921C53.0614 37.85 53.0039 37.5679 53.0039 37.2437C53.0039 36.9195 53.0605 36.6281 53.1747 36.3925C53.2879 36.1569 53.4468 35.9742 53.6505 35.8437C53.8541 35.7131 54.0907 35.6482 54.3601 35.6482C54.6295 35.6482 54.8614 35.714 55.0569 35.8473C55.2523 35.9797 55.3838 36.1578 55.4514 36.3806H55.382V34.6144C55.382 34.5094 55.4094 34.43 55.4642 34.3752C55.519 34.3204 55.5966 34.293 55.698 34.293C55.7993 34.293 55.8779 34.3204 55.9345 34.3752C55.9911 34.43 56.0194 34.5094 56.0194 34.6144V38.5067C56.0194 38.608 55.992 38.6866 55.9372 38.7432C55.8824 38.7998 55.8048 38.8281 55.7034 38.8281C55.6021 38.8281 55.5245 38.7998 55.4697 38.7432C55.4149 38.6866 55.3875 38.608 55.3875 38.5067V37.9514L55.4569 38.0902C55.3893 38.3176 55.2578 38.4994 55.0624 38.6354C54.8669 38.7724 54.6322 38.84 54.3592 38.84H54.3601ZM54.5245 38.3487C54.6971 38.3487 54.8477 38.3067 54.9783 38.2226C55.1089 38.1386 55.2103 38.0144 55.2843 37.851C55.3582 37.6866 55.3948 37.4847 55.3948 37.2455C55.3948 36.8838 55.3153 36.6108 55.1555 36.4254C54.9957 36.24 54.7856 36.1478 54.5245 36.1478C54.3482 36.1478 54.1939 36.1889 54.0642 36.2711C53.9345 36.3532 53.8322 36.4756 53.7582 36.64C53.6843 36.8035 53.6477 37.0062 53.6477 37.2455C53.6477 37.6026 53.7272 37.8765 53.887 38.0656C54.0468 38.2546 54.2587 38.3496 54.5245 38.3496V38.3487Z" fill="#F89A21"/>
<path d="M58.0152 39.9643C57.9394 39.9643 57.8773 39.9442 57.8289 39.904C57.7805 39.8638 57.7531 39.8118 57.7467 39.746C57.7403 39.6802 57.7522 39.6108 57.7814 39.535L58.2106 38.5697V38.841L57.0307 36.0967C57.0015 36.0209 56.9905 35.9497 56.9987 35.8821C57.007 35.8145 57.0389 35.7615 57.0937 35.7213C57.1485 35.6812 57.2216 35.6611 57.3147 35.6611C57.3942 35.6611 57.4572 35.6802 57.5038 35.7177C57.5503 35.7551 57.5923 35.8209 57.6298 35.9131L58.5823 38.2656H58.406L59.3713 35.9131C59.4088 35.8163 59.4535 35.7506 59.5038 35.714C59.554 35.6784 59.6234 35.6602 59.712 35.6602C59.7878 35.6602 59.8471 35.6802 59.8919 35.7204C59.9357 35.7606 59.9631 35.8127 59.9741 35.8784C59.985 35.9433 59.9732 36.0145 59.9394 36.0894L58.3622 39.7159C58.3202 39.8127 58.2727 39.8775 58.2207 39.9113C58.1677 39.9451 58.1001 39.9615 58.0161 39.9615L58.0152 39.9643Z" fill="#F89A21"/>
<path d="M63.9827 38.8393C63.768 38.8393 63.5754 38.7973 63.4055 38.7133C63.2356 38.6293 63.1014 38.516 63.0046 38.3726C62.9078 38.2302 62.8594 38.0676 62.8594 37.8868C62.8594 37.6594 62.9169 37.4795 63.0329 37.348C63.1489 37.2156 63.3397 37.1206 63.6064 37.064C63.8731 37.0073 64.2338 36.979 64.6877 36.979H64.9845V37.3699H64.6941C64.3918 37.3699 64.1516 37.3845 63.9754 37.4137C63.7991 37.443 63.6731 37.4923 63.6 37.5617C63.526 37.6311 63.4895 37.727 63.4895 37.8484C63.4895 38.0083 63.5443 38.1379 63.6539 38.2366C63.7635 38.3352 63.9142 38.3845 64.1078 38.3845C64.263 38.3845 64.4 38.348 64.5178 38.274C64.6356 38.2 64.7288 38.1005 64.7982 37.9745C64.8676 37.8484 64.9023 37.7032 64.9023 37.5388V36.8137C64.9023 36.5745 64.8521 36.4019 64.7507 36.2968C64.6493 36.1918 64.4831 36.1389 64.2521 36.1389C64.1178 36.1389 63.9781 36.1562 63.8329 36.1891C63.6877 36.2229 63.5379 36.2795 63.3818 36.3599C63.3105 36.3936 63.2493 36.4037 63.1991 36.3918C63.1489 36.379 63.1087 36.3507 63.0795 36.3069C63.0502 36.2631 63.0347 36.2146 63.032 36.1617C63.0302 36.1087 63.042 36.0576 63.0694 36.0073C63.0968 35.9571 63.1443 35.9188 63.211 35.8941C63.3964 35.8055 63.579 35.7425 63.7598 35.7051C63.9407 35.6676 64.1105 35.6484 64.2703 35.6484C64.5516 35.6484 64.7845 35.6923 64.9671 35.7809C65.1498 35.8694 65.2859 36.0037 65.3744 36.1845C65.463 36.3653 65.5069 36.5991 65.5069 36.885V38.506C65.5069 38.6073 65.4813 38.6859 65.4311 38.7425C65.3808 38.7991 65.3069 38.8274 65.2101 38.8274C65.1133 38.8274 65.0439 38.7991 64.9891 38.7425C64.9343 38.6859 64.9069 38.6073 64.9069 38.506V38.0959H64.9635C64.9297 38.2512 64.8676 38.3854 64.7772 38.4959C64.6868 38.6073 64.5744 38.6923 64.4402 38.7516C64.3059 38.8101 64.1516 38.8402 63.9799 38.8402L63.9827 38.8393Z" fill="#F89A21"/>
<path d="M67.0738 38.8274C66.9724 38.8274 66.8948 38.7991 66.84 38.7425C66.7852 38.6859 66.7578 38.6073 66.7578 38.506V35.9827C66.7578 35.8777 66.7852 35.7982 66.84 35.7434C66.8948 35.6886 66.9706 35.6612 67.0674 35.6612C67.1642 35.6612 67.2446 35.6886 67.2975 35.7434C67.3505 35.7982 67.3761 35.8777 67.3761 35.9827V36.4749L67.3067 36.3617C67.3989 36.1261 67.5441 35.9489 67.7423 35.8283C67.9396 35.7087 68.1669 35.6484 68.4236 35.6484C68.6802 35.6484 68.8701 35.6932 69.0327 35.7836C69.1943 35.874 69.3158 36.011 69.3953 36.1936C69.4747 36.3763 69.5149 36.6064 69.5149 36.8841V38.5051C69.5149 38.6064 69.4875 38.685 69.4327 38.7416C69.3779 38.7982 69.3003 38.8265 69.1989 38.8265C69.0975 38.8265 69.0135 38.7982 68.9596 38.7416C68.9058 38.685 68.8774 38.6064 68.8774 38.5051V36.9215C68.8774 36.6567 68.8254 36.4631 68.7231 36.3416C68.6199 36.2201 68.4592 36.1589 68.2409 36.1589C67.9843 36.1589 67.7797 36.2384 67.6263 36.3982C67.4729 36.558 67.3962 36.7726 67.3962 37.0411V38.5041C67.3962 38.7188 67.2893 38.8256 67.0747 38.8256L67.0738 38.8274Z" fill="#F89A21"/>
<path d="M71.4683 39.9643C71.3925 39.9643 71.3304 39.9442 71.282 39.904C71.2336 39.8638 71.2062 39.8118 71.1998 39.746C71.1934 39.6802 71.2053 39.6108 71.2345 39.535L71.6637 38.5697V38.841L70.4838 36.0967C70.4546 36.0209 70.4437 35.9497 70.4519 35.8821C70.4601 35.8145 70.4921 35.7615 70.5468 35.7213C70.6016 35.6812 70.6747 35.6611 70.7678 35.6611C70.8473 35.6611 70.9103 35.6802 70.9569 35.7177C71.0035 35.7551 71.0455 35.8209 71.0829 35.9131L72.0354 38.2656H71.8592L72.8245 35.9131C72.8619 35.8163 72.9067 35.7506 72.9569 35.714C73.0071 35.6784 73.0765 35.6602 73.1651 35.6602C73.2409 35.6602 73.3003 35.6802 73.345 35.7204C73.3889 35.7606 73.4162 35.8127 73.4272 35.8784C73.4382 35.9433 73.4263 36.0145 73.3925 36.0894L71.8153 39.7159C71.7733 39.8127 71.7258 39.8775 71.6738 39.9113C71.6208 39.9451 71.5532 39.9615 71.4692 39.9615L71.4683 39.9643Z" fill="#F89A21"/>
<path d="M75.6997 38.8294C75.6111 38.8294 75.5344 38.8074 75.4696 38.7636C75.4048 38.7198 75.3527 38.6495 75.3153 38.5526L74.3883 36.0988C74.3545 36.0147 74.3445 35.9399 74.3563 35.875C74.3691 35.8102 74.4011 35.7581 74.4541 35.7207C74.507 35.6832 74.5746 35.6641 74.6586 35.6641C74.7344 35.6641 74.7965 35.6823 74.8449 35.7179C74.8933 35.7536 74.9344 35.8221 74.9682 35.9225L75.7947 38.2504H75.6431L76.5006 35.8979C76.5299 35.8184 76.5701 35.759 76.6203 35.7216C76.6705 35.6842 76.7363 35.665 76.8157 35.665C76.8952 35.665 76.9618 35.6842 77.0139 35.7216C77.0669 35.759 77.1052 35.8184 77.1308 35.8979L77.97 38.2504H77.8312L78.6705 35.9106C78.7043 35.8138 78.7472 35.749 78.8002 35.7152C78.8532 35.6814 78.9125 35.665 78.9801 35.665C79.0641 35.665 79.128 35.686 79.1728 35.728C79.2166 35.77 79.2422 35.8239 79.2486 35.8887C79.255 35.9536 79.2431 36.0239 79.2139 36.0997L78.2869 38.5536C78.2495 38.6458 78.1974 38.7152 78.1326 38.7618C78.0678 38.8084 77.9929 38.8312 77.9089 38.8312C77.8203 38.8312 77.7436 38.8084 77.6787 38.7618C77.6139 38.7152 77.5618 38.6458 77.5244 38.5536L76.6413 36.1627H76.9564L76.0796 38.5536C76.0459 38.6458 75.9965 38.7152 75.9317 38.7618C75.8669 38.8084 75.7901 38.8312 75.7016 38.8312L75.6997 38.8294Z" fill="#F89A21"/>
<path d="M80.6089 38.8281C80.5076 38.8281 80.43 38.7998 80.3752 38.7432C80.3204 38.6866 80.293 38.608 80.293 38.5067V34.6144C80.293 34.5094 80.3204 34.43 80.3752 34.3752C80.43 34.3204 80.5076 34.293 80.6089 34.293C80.7103 34.293 80.7889 34.3204 80.8455 34.3752C80.9021 34.43 80.9304 34.5094 80.9304 34.6144V36.3615H80.8418C80.9341 36.1258 81.0793 35.9487 81.2774 35.8281C81.4747 35.7085 81.7021 35.6482 81.9587 35.6482C82.2153 35.6482 82.4053 35.693 82.5679 35.7834C82.7295 35.8738 82.851 36.0108 82.9304 36.1934C83.0099 36.3761 83.05 36.6062 83.05 36.8838V38.5048C83.05 38.6062 83.0226 38.6847 82.9679 38.7414C82.9131 38.798 82.8354 38.8263 82.7341 38.8263C82.6327 38.8263 82.5487 38.798 82.4948 38.7414C82.4409 38.6847 82.4126 38.6062 82.4126 38.5048V36.9213C82.4126 36.6564 82.3605 36.4628 82.2583 36.3414C82.1551 36.2199 81.9943 36.1587 81.7761 36.1587C81.5195 36.1587 81.3149 36.2382 81.1615 36.398C81.008 36.5578 80.9313 36.7724 80.9313 37.0409V38.5039C80.9313 38.7185 80.8245 38.8254 80.6099 38.8254L80.6089 38.8281Z" fill="#F89A21"/>
<path d="M85.7492 38.8392C85.4131 38.8392 85.1237 38.7753 84.8816 38.6465C84.6396 38.5186 84.4524 38.3351 84.32 38.0976C84.1876 37.8602 84.1209 37.5771 84.1209 37.2492C84.1209 36.9214 84.1858 36.6501 84.3163 36.41C84.4469 36.1707 84.625 35.9835 84.8524 35.8483C85.0798 35.7141 85.3383 35.6465 85.6287 35.6465C85.8433 35.6465 86.0342 35.6812 86.2022 35.7506C86.3702 35.82 86.5145 35.9214 86.6342 36.0538C86.7538 36.1862 86.8442 36.3469 86.9054 36.536C86.9666 36.725 86.9967 36.9378 86.9967 37.1734C86.9967 37.2447 86.9757 37.2985 86.9337 37.3342C86.8917 37.3698 86.8287 37.388 86.7447 37.388H84.625V36.9972H86.5675L86.4606 37.0858C86.4606 36.8757 86.4296 36.6967 86.3693 36.5497C86.3081 36.4027 86.2177 36.2903 86.0981 36.2127C85.9784 36.1351 85.8296 36.0958 85.6533 36.0958C85.4561 36.0958 85.288 36.1424 85.152 36.2346C85.015 36.3268 84.9109 36.4556 84.8396 36.6191C84.7684 36.7835 84.7328 36.9743 84.7328 37.1935V37.231C84.7328 37.6008 84.8195 37.8794 84.9949 38.0666C85.1693 38.2538 85.4223 38.3469 85.7547 38.3469C85.8807 38.3469 86.0141 38.3305 86.1547 38.2967C86.2953 38.2629 86.4287 38.2063 86.5556 38.1268C86.6268 38.0848 86.6917 38.0657 86.7483 38.0702C86.8049 38.0748 86.8515 38.0931 86.8871 38.1268C86.9227 38.1606 86.9447 38.2026 86.9529 38.2529C86.9611 38.3031 86.9529 38.3552 86.9273 38.4072C86.9017 38.4602 86.8579 38.5068 86.7949 38.5488C86.6515 38.6456 86.4862 38.7177 86.2963 38.7661C86.1072 38.8145 85.9237 38.8392 85.7474 38.8392H85.7492Z" fill="#F89A21"/>
<path d="M88.3879 38.8276C88.2828 38.8276 88.2025 38.7993 88.1486 38.7427C88.0947 38.686 88.0664 38.6075 88.0664 38.5061V35.9828C88.0664 35.8778 88.0938 35.7984 88.1486 35.7436C88.2034 35.6888 88.2792 35.6614 88.376 35.6614C88.4728 35.6614 88.5532 35.6888 88.6061 35.7436C88.6591 35.7984 88.6847 35.8778 88.6847 35.9828V36.4431H88.6217C88.6892 36.1911 88.8134 35.9993 88.9943 35.8687C89.1751 35.7381 89.4061 35.6632 89.6883 35.6413C89.7641 35.6367 89.8244 35.6559 89.8682 35.6979C89.9121 35.7399 89.9367 35.8048 89.9404 35.8933C89.9486 35.9819 89.9294 36.0522 89.8838 36.1043C89.8372 36.1573 89.7659 36.1874 89.6691 36.1956L89.5495 36.2084C89.2765 36.234 89.0682 36.3198 88.9249 36.4669C88.7815 36.6139 88.7102 36.8157 88.7102 37.0723V38.5043C88.7102 38.6057 88.6838 38.6842 88.6317 38.7408C88.5787 38.7974 88.4984 38.8258 88.3888 38.8258L88.3879 38.8276Z" fill="#F89A21"/>
<path d="M92.1947 38.8411C91.8586 38.8411 91.5691 38.7772 91.3271 38.6484C91.0851 38.5206 90.8979 38.337 90.7655 38.0996C90.6331 37.8621 90.5664 37.579 90.5664 37.2512C90.5664 36.9233 90.6312 36.6521 90.7618 36.4119C90.8924 36.1726 91.0705 35.9854 91.2979 35.8503C91.5253 35.716 91.7838 35.6484 92.0742 35.6484C92.2888 35.6484 92.4796 35.6831 92.6477 35.7525C92.8157 35.822 92.96 35.9233 93.0796 36.0557C93.1993 36.1882 93.2897 36.3489 93.3509 36.5379C93.4121 36.727 93.4422 36.9398 93.4422 37.1754C93.4422 37.2466 93.4212 37.3005 93.3792 37.3361C93.3372 37.3717 93.2742 37.39 93.1901 37.39H91.0705V36.9991H93.013L92.9061 37.0877C92.9061 36.8777 92.8751 36.6987 92.8148 36.5516C92.7536 36.4046 92.6632 36.2923 92.5436 36.2146C92.4239 36.137 92.2751 36.0978 92.0988 36.0978C91.9016 36.0978 91.7335 36.1443 91.5975 36.2366C91.4605 36.3288 91.3564 36.4576 91.2851 36.621C91.2139 36.7854 91.1783 36.9763 91.1783 37.1955V37.2329C91.1783 37.6028 91.265 37.8813 91.4404 38.0685C91.6148 38.2557 91.8678 38.3489 92.2002 38.3489C92.3262 38.3489 92.4596 38.3325 92.6002 38.2987C92.7408 38.2649 92.8742 38.2083 93.0011 38.1288C93.0723 38.0868 93.1372 38.0676 93.1938 38.0722C93.2504 38.0767 93.297 38.095 93.3326 38.1288C93.3682 38.1626 93.3901 38.2046 93.3984 38.2548C93.4066 38.3051 93.3984 38.3571 93.3728 38.4092C93.3472 38.4621 93.3034 38.5087 93.2404 38.5507C93.097 38.6475 92.9317 38.7197 92.7417 38.7681C92.5527 38.8165 92.3691 38.8411 92.1929 38.8411H92.1947Z" fill="#F89A21"/>
<path d="M94.8319 38.808C94.7095 38.808 94.6109 38.7706 94.5351 38.6948C94.4593 38.619 94.4219 38.5222 94.4219 38.4044C94.4219 38.2866 94.4593 38.1907 94.5351 38.1176C94.6109 38.0437 94.7095 38.0071 94.8319 38.0071C94.9543 38.0071 95.0502 38.0437 95.1223 38.1176C95.1936 38.1916 95.2301 38.2866 95.2301 38.4044C95.2301 38.5222 95.1945 38.619 95.1223 38.6948C95.0502 38.7706 94.9543 38.808 94.8319 38.808ZM94.8319 37.5843C94.7643 37.5843 94.7132 37.5633 94.6776 37.5213C94.642 37.4793 94.62 37.4208 94.6109 37.345L94.4593 34.7085C94.4511 34.5825 94.4785 34.4811 94.5415 34.4062C94.6045 34.3313 94.7013 34.293 94.8319 34.293C94.9534 34.293 95.0465 34.3313 95.1095 34.4062C95.1726 34.482 95.1981 34.5825 95.1853 34.7085L95.0337 37.345C95.0292 37.4208 95.0091 37.4793 94.9735 37.5213C94.9378 37.5633 94.8904 37.5843 94.8319 37.5843Z" fill="#F89A21"/>
</g>
<defs>
<linearGradient id="paint0_linear_1198_4446" x1="51.7481" y1="12.0685" x2="40.6211" y2="31.3415" gradientUnits="userSpaceOnUse">
<stop stop-color="#4C6E99"/>
<stop offset="1" stop-color="#1F4A80"/>
</linearGradient>
<linearGradient id="paint1_linear_1198_4446" x1="50.4451" y1="5.79108" x2="42.6406" y2="13.5956" gradientUnits="userSpaceOnUse">
<stop stop-color="#FBC27A"/>
<stop offset="1" stop-color="#F89A21"/>
</linearGradient>
<radialGradient id="paint2_radial_1198_4446" cx="0" cy="0" r="1" gradientUnits="userSpaceOnUse" gradientTransform="translate(41.0918 15.854) scale(17.0283 17.0283)">
<stop stop-color="white"/>
<stop offset="0.5" stop-color="#FBC27A"/>
<stop offset="1" stop-color="#F89A21"/>
</radialGradient>
<radialGradient id="paint3_radial_1198_4446" cx="0" cy="0" r="1" gradientUnits="userSpaceOnUse" gradientTransform="translate(45.1036 10.3526) scale(8.08402 8.08402)">
<stop stop-color="white"/>
<stop offset="0.5" stop-color="#FBC27A"/>
<stop offset="1" stop-color="#F89A21"/>
</radialGradient>
<linearGradient id="paint4_linear_1198_4446" x1="48.5262" y1="6.02596" x2="44.5563" y2="9.99582" gradientUnits="userSpaceOnUse">
<stop stop-color="#FBC27A"/>
<stop offset="1" stop-color="#F89A21"/>
</linearGradient>
<linearGradient id="paint5_linear_1198_4446" x1="46.5422" y1="2.2155" x2="46.5422" y2="8.80819" gradientUnits="userSpaceOnUse">
<stop stop-color="#FEEBD3"/>
<stop offset="1" stop-color="white" stop-opacity="0"/>
</linearGradient>
<radialGradient id="paint6_radial_1198_4446" cx="0" cy="0" r="1" gradientUnits="userSpaceOnUse" gradientTransform="translate(46.6076 -5.92237) scale(17.8941 17.8941)">
<stop stop-color="white"/>
<stop offset="0.03" stop-color="#EDF1F5"/>
<stop offset="0.12" stop-color="#B4C2D4"/>
<stop offset="0.2" stop-color="#879EBA"/>
<stop offset="0.28" stop-color="#6683A8"/>
<stop offset="0.34" stop-color="#53739D"/>
<stop offset="0.38" stop-color="#4C6E99"/>
<stop offset="0.67" stop-color="#1F4A80"/>
</radialGradient>
<radialGradient id="paint7_radial_1198_4446" cx="0" cy="0" r="1" gradientUnits="userSpaceOnUse" gradientTransform="translate(46.9546 21.0639) scale(8.17717)">
<stop stop-color="white"/>
<stop offset="0.5" stop-color="#FBC27A"/>
<stop offset="1" stop-color="#F89A21"/>
</radialGradient>
<linearGradient id="paint8_linear_1198_4446" x1="13.1621" y1="13.2017" x2="1.85251" y2="32.7907" gradientUnits="userSpaceOnUse">
<stop stop-color="#4C6E99"/>
<stop offset="1" stop-color="#1F4A80"/>
</linearGradient>
<linearGradient id="paint9_linear_1198_4446" x1="29.7361" y1="14.0592" x2="18.8256" y2="32.9578" gradientUnits="userSpaceOnUse">
<stop stop-color="#4C6E99"/>
<stop offset="1" stop-color="#1F4A80"/>
</linearGradient>
<linearGradient id="paint10_linear_1198_4446" x1="72.2436" y1="12.5554" x2="60.0902" y2="33.6056" gradientUnits="userSpaceOnUse">
<stop stop-color="#4C6E99"/>
<stop offset="1" stop-color="#1F4A80"/>
</linearGradient>
<linearGradient id="paint11_linear_1198_4446" x1="92.8434" y1="16.9032" x2="81.9704" y2="35.737" gradientUnits="userSpaceOnUse">
<stop stop-color="#4C6E99"/>
<stop offset="1" stop-color="#1F4A80"/>
</linearGradient>
<clipPath id="clip0_1198_4446">
<rect width="94.9772" height="40" fill="white" transform="translate(0.5)"/>
</clipPath>
</defs>
</svg>
