<svg width="1040" height="438" viewBox="0 0 1040 438" fill="none" xmlns="http://www.w3.org/2000/svg">
<path d="M561.41 274.58C557.59 275.81 553.7 276.94 549.71 277.97C548.96 292.23 545.07 303.35 538.04 311.38C530.13 320.39 518.79 324.88 504 324.88C489.21 324.88 477.94 320.44 470.14 311.53C464.19 304.73 460.5 295.54 459.1 283.99C456.46 283.64 453.9 283.21 451.42 282.76C451.12 282.71 450.82 282.66 450.54 282.61C444.29 281.41 438.42 279.92 433.02 278.14C429.2 276.91 425.62 275.53 422.3 274.02C418.53 272.34 415.1 270.48 411.98 268.47V270.53C411.98 300.28 419.84 322.92 435.53 338.4C451.22 353.89 474.04 361.64 504.01 361.64C533.98 361.64 556.87 353.83 572.66 338.25C588.45 322.66 596.36 300.07 596.36 270.53V258.88C586.8 264.75 575.32 269.95 562.55 274.19C562.17 274.34 561.77 274.44 561.42 274.57L561.41 274.58ZM589.98 149.65C585.71 145.38 580.04 143.27 572.96 143.27C565.88 143.27 560.26 145.38 556.09 149.65C551.95 153.89 549.86 159.57 549.86 166.64V266.69C551.06 266.36 552.24 266.01 553.42 265.64C557.81 264.26 562.03 262.78 566.07 261.15C567.02 260.8 567.95 260.42 568.88 260.02C579.52 255.58 588.84 250.33 596.34 244.58V166.64C596.34 159.56 594.21 153.89 589.96 149.65H589.98ZM428.32 264.59C433.99 267.1 440.42 269.23 447.42 270.92C447.65 270.97 447.9 271.05 448.12 271.1C450.55 271.68 453.04 272.18 455.58 272.63C456.53 272.81 457.49 272.98 458.44 273.13V166.65C458.44 159.57 456.38 153.9 452.21 149.66C448.07 145.39 442.45 143.28 435.37 143.28C428.29 143.28 422.62 145.39 418.35 149.66C414.11 153.9 411.97 159.58 411.97 166.65V254.56C414.15 256.49 416.64 258.27 419.38 259.96C422.12 261.62 425.1 263.17 428.32 264.6V264.59Z" fill="url(#paint0_linear_1_55)"/>
<path fillRule="evenodd" clipRule="evenodd" d="M418.71 106.14C451.49 123.24 481.49 149.23 504.17 178.26C526.85 149.24 556.85 123.25 589.63 106.14C558.1 110.62 528.76 122.96 504.17 141.55C479.57 122.95 450.24 110.61 418.71 106.14Z" fill="url(#paint1_linear_1_55)"/>
<path opacity="0.7" fillRule="evenodd" clipRule="evenodd" d="M504.17 178.25C526.85 149.23 556.85 123.24 589.63 106.13C559.54 118.92 530.82 136.49 504.17 161.29V178.25Z" fill="url(#paint2_radial_1_55)"/>
<path opacity="0.7" fillRule="evenodd" clipRule="evenodd" d="M504.17 178.25V161.29C477.52 136.49 448.8 118.92 418.71 106.13C451.49 123.23 481.49 149.22 504.17 178.25Z" fill="url(#paint3_radial_1_55)"/>
<path fillRule="evenodd" clipRule="evenodd" d="M504.17 56.98C487.19 56.98 473.43 70.74 473.43 87.72C473.43 104.7 487.19 118.46 504.17 118.46C521.15 118.46 534.91 104.7 534.91 87.72C534.91 70.74 521.15 56.98 504.17 56.98Z" fill="url(#paint4_linear_1_55)"/>
<path fillRule="evenodd" clipRule="evenodd" d="M504.17 62.92C490.47 62.92 479.37 74.02 479.37 87.72C479.37 101.42 490.47 79.77 504.17 79.77C517.87 79.77 528.97 101.42 528.97 87.72C528.97 74.02 517.87 62.92 504.17 62.92Z" fill="url(#paint5_linear_1_55)"/>
<path fillRule="evenodd" clipRule="evenodd" d="M566.53 32.07L511.32 2.01C506.4 -0.67 500.91 -0.67 495.99 2.01L440.78 32.07C436.94 34.16 437.12 39.76 441.08 41.61L466.31 53.34L472.91 34.91V64.13C480.26 54.58 491.55 48.98 503.65 48.98C515.75 48.98 527.05 54.58 534.39 64.13V34.91L540.99 53.34L566.22 41.61C570.18 39.77 570.36 34.17 566.52 32.07H566.53Z" fill="url(#paint6_radial_1_55)"/>
<path fillRule="evenodd" clipRule="evenodd" d="M624.74 218.47C625.02 217.15 625.19 215.85 625.27 214.52C626.09 201.17 616.98 189.69 601.15 181.37C606.23 185.2 610.09 189.53 612.49 194.28C614.64 198.44 615.63 202.92 615.34 207.66C615.3 208.15 615.26 208.65 615.21 209.15C615.11 209.96 614.98 210.76 614.8 211.56C613.92 215.86 612.01 220.09 609.19 224.19C607.61 226.53 605.72 228.83 603.56 231.07C601.79 232.9 599.82 234.71 597.71 236.47C589.78 243.05 579.51 249.05 567.57 254.04C566.64 254.43 565.71 254.8 564.75 255.17C560.72 256.79 556.49 258.28 552.12 259.65C544.53 262.04 536.48 264.04 528.08 265.6C524.29 266.32 520.42 266.94 516.49 267.46C512.39 268.02 508.23 268.44 504.03 268.77C492.12 269.69 480.75 269.64 470.15 268.73C468.94 268.62 467.73 268.51 466.54 268.38C462.31 267.93 458.21 267.35 454.27 266.64C451.72 266.19 449.24 265.68 446.81 265.11C446.57 265.05 446.32 264.99 446.09 264.93C439.08 263.24 432.67 261.11 427.01 258.6C423.79 257.17 420.79 255.62 418.05 253.94C405.82 246.45 398.78 236.63 399.03 225.39C399.03 225.06 399.03 224.73 399.06 224.39C399.17 222.7 399.43 221 399.84 219.33C399.89 219.11 399.95 218.91 400.01 218.69C400.18 218.02 400.38 217.37 400.62 216.7C401.85 213.15 403.78 209.65 406.33 206.24C399.44 212.83 394.78 219.89 392.91 227.12C392.46 228.92 392.16 230.73 392.06 232.56C392.04 232.86 392.04 233.18 392.03 233.49C391.89 238.86 393.37 243.91 396.23 248.56C400.96 256.27 409.52 262.9 420.97 268.03C424.3 269.54 427.88 270.93 431.69 272.16C437.1 273.93 442.97 275.42 449.21 276.61C449.49 276.67 449.79 276.72 450.09 276.77C453.34 277.37 456.69 277.89 460.14 278.32C465.56 279.01 471.23 279.48 477.07 279.72C478.03 279.77 478.99 279.79 479.96 279.82H479.98C488.1 280.06 496.58 279.87 505.3 279.19C508.92 278.92 512.49 278.56 516.03 278.12C516.99 278.01 517.93 277.9 518.88 277.77C518.99 277.75 519.12 277.74 519.23 277.72C528.69 276.45 537.83 274.67 546.52 272.48C551.18 271.29 555.7 269.99 560.07 268.58C560.44 268.46 560.83 268.34 561.2 268.2C575.45 263.48 588.03 257.56 598.2 250.87C599.79 249.81 601.34 248.75 602.81 247.65C609.68 242.59 615.18 237.13 619.03 231.45C621.89 227.21 623.83 222.85 624.73 218.45" fill="url(#paint7_radial_1_55)"/>
<path d="M8.37999 353.16C4.52999 349.32 2.60999 343.85 2.60999 336.76V166.97C2.60999 159.88 4.52999 154.42 8.37999 150.57C12.23 146.73 17.69 144.8 24.78 144.8H132.3C147.28 144.8 154.78 150.88 154.78 163.02C154.78 175.16 147.29 181.55 132.3 181.55H48.77V231.66H126.22C141.2 231.66 148.7 237.84 148.7 250.19C148.7 262.54 141.21 268.41 126.22 268.41H48.77V322.17H132.29C147.27 322.17 154.77 328.35 154.77 340.7C154.77 353.05 147.28 358.92 132.29 358.92H24.78C17.69 358.92 12.22 357 8.37999 353.15V353.16Z" fill="url(#paint8_linear_1_55)"/>
<path d="M188.48 353.16C184.63 349.32 182.71 343.85 182.71 336.76V166.97C182.71 159.88 184.63 154.42 188.48 150.57C192.33 146.73 197.79 144.8 204.88 144.8H265.93C289.21 144.8 309.26 149.05 326.07 157.56C342.87 166.06 355.73 178.32 364.64 194.31C373.55 210.31 378 229.44 378 251.72C378 274 373.59 293.18 364.79 309.28C355.98 325.38 343.17 337.68 326.37 346.18C309.56 354.68 289.41 358.94 265.93 358.94H204.88C197.79 358.94 192.32 357.02 188.48 353.17V353.16ZM262.59 320.66C308.15 320.66 330.93 297.68 330.93 251.71C330.93 205.74 308.15 183.07 262.59 183.07H230.09V320.66H262.59Z" fill="url(#paint9_linear_1_55)"/>
<path d="M813.86 338.88C813.86 344.75 811.58 349.87 807.03 354.22C802.47 358.58 797.26 360.75 791.39 360.75C785.52 360.75 780.15 358.22 775.9 353.16L718.8 283.3L661.09 353.16C656.63 358.22 651.47 360.75 645.6 360.75C639.73 360.75 634.82 358.58 630.26 354.22C625.7 349.87 623.43 344.76 623.43 338.88C623.43 333.82 625.25 329.16 628.9 324.91L691.16 250.8L631.02 178.82C627.17 174.37 625.25 169.71 625.25 164.85C625.25 158.98 627.53 153.87 632.08 149.51C636.64 145.16 641.75 142.98 647.42 142.98C653.49 142.98 658.76 145.61 663.21 150.88L718.79 218L773.76 150.88C778.21 145.62 783.48 142.98 789.55 142.98C795.22 142.98 800.33 145.16 804.89 149.51C809.45 153.87 811.72 158.98 811.72 164.85C811.72 169.91 809.9 174.57 806.25 178.82L746.11 250.8L808.07 324.91C811.91 329.37 813.84 334.02 813.84 338.88H813.86Z" fill="url(#paint10_linear_1_55)"/>
<path d="M1039.83 339.79C1039.83 345.46 1037.55 350.27 1033 354.22C1028.44 358.17 1023.23 360.14 1017.36 360.14C1013.51 360.14 1009.87 359.08 1006.42 356.95C1002.97 354.82 1000.35 351.64 998.52 347.38L982.42 311.54H879.45L863.35 347.38C861.53 351.63 858.95 354.82 855.61 356.95C852.27 359.08 848.57 360.14 844.52 360.14C838.64 360.14 833.38 358.17 828.73 354.22C824.07 350.27 821.74 345.46 821.74 339.79C821.74 336.96 822.55 333.72 824.17 330.07L906.18 157.86C908.41 153 911.75 149.31 916.2 146.77C920.65 144.24 925.41 142.97 930.47 142.97C935.53 142.97 940.59 144.29 945.05 146.92C949.5 149.55 952.95 153.2 955.38 157.85L1037.39 330.06C1039.01 333.71 1039.82 336.95 1039.82 339.78L1039.83 339.79ZM966.33 275.71L931.1 196.74L895.56 275.71H966.33Z" fill="url(#paint11_linear_1_55)"/>
<path d="M18.46 425.3C16.34 425.3 14.27 425.14 12.24 424.82C10.21 424.5 8.29998 424 6.50998 423.33C4.70998 422.66 3.09998 421.85 1.66998 420.88C0.97998 420.37 0.50998 419.8 0.24998 419.15C-2.0355e-05 418.51 -0.0700203 417.87 0.0399797 417.25C0.14998 416.63 0.41998 416.09 0.82998 415.63C1.23998 415.17 1.74998 414.88 2.34998 414.77C2.94998 414.66 3.61998 414.85 4.34998 415.36C6.41998 416.7 8.60998 417.67 10.91 418.3C13.21 418.92 15.72 419.23 18.44 419.23C22.35 419.23 25.24 418.53 27.11 417.12C28.98 415.71 29.91 413.89 29.91 411.63C29.91 409.79 29.24 408.33 27.91 407.25C26.57 406.17 24.34 405.3 21.21 404.66L13.82 403.14C9.44998 402.22 6.18998 400.7 4.04998 398.58C1.90998 396.46 0.83998 393.61 0.83998 390.02C0.83998 387.86 1.28998 385.88 2.18998 384.08C3.08998 382.28 4.33998 380.73 5.94998 379.42C7.55998 378.11 9.48998 377.11 11.75 376.42C14 375.73 16.47 375.38 19.14 375.38C21.99 375.38 24.68 375.75 27.19 376.48C29.7 377.22 31.94 378.35 33.92 379.86C34.52 380.27 34.92 380.79 35.13 381.41C35.34 382.03 35.38 382.64 35.27 383.24C35.15 383.84 34.89 384.35 34.48 384.76C34.07 385.17 33.54 385.42 32.89 385.48C32.24 385.54 31.53 385.33 30.75 384.82C28.96 383.62 27.12 382.76 25.26 382.23C23.4 381.7 21.33 381.44 19.08 381.44C16.83 381.44 14.85 381.79 13.17 382.48C11.49 383.17 10.2 384.14 9.29998 385.38C8.39998 386.62 7.94998 388.1 7.94998 389.8C7.94998 391.73 8.56998 393.28 9.81998 394.43C11.06 395.58 13.13 396.46 16.04 397.05L23.36 398.57C27.96 399.54 31.39 401.03 33.65 403.06C35.9 405.09 37.03 407.78 37.03 411.14C37.03 413.3 36.59 415.25 35.72 416.98C34.84 418.71 33.6 420.19 31.99 421.44C30.38 422.68 28.43 423.64 26.15 424.31C23.87 424.98 21.3 425.31 18.45 425.31L18.46 425.3Z" fill="#F89A21"/>
<path d="M62.73 425.3C59.97 425.3 57.64 424.82 55.75 423.85C53.86 422.88 52.46 421.46 51.54 419.57C50.62 417.68 50.16 415.38 50.16 412.66V396.36H46.02C45.1 396.36 44.38 396.12 43.88 395.64C43.37 395.16 43.12 394.5 43.12 393.67C43.12 392.8 43.37 392.13 43.88 391.67C44.39 391.21 45.1 390.98 46.02 390.98H50.16V383.87C50.16 382.72 50.47 381.84 51.09 381.25C51.71 380.65 52.58 380.35 53.68 380.35C54.78 380.35 55.64 380.65 56.24 381.25C56.84 381.85 57.14 382.72 57.14 383.87V390.98H65.22C66.14 390.98 66.85 391.21 67.36 391.67C67.87 392.13 68.12 392.8 68.12 393.67C68.12 394.5 67.87 395.16 67.36 395.64C66.85 396.12 66.14 396.36 65.22 396.36H57.14V412.11C57.14 414.55 57.66 416.39 58.69 417.64C59.73 418.88 61.42 419.51 63.77 419.51C64.6 419.51 65.32 419.43 65.95 419.27C66.57 419.11 67.09 419.01 67.5 418.96C68.01 418.96 68.42 419.13 68.74 419.48C69.06 419.83 69.22 420.48 69.22 421.45C69.22 422.14 69.09 422.79 68.84 423.38C68.59 423.98 68.14 424.37 67.49 424.55C66.94 424.73 66.19 424.91 65.25 425.07C64.31 425.23 63.47 425.31 62.73 425.31V425.3Z" fill="#F89A21"/>
<path d="M89.74 425.3C87.02 425.3 84.76 424.79 82.94 423.78C81.12 422.77 79.76 421.26 78.87 419.26C77.97 417.26 77.52 414.74 77.52 411.7V394.02C77.52 392.82 77.82 391.94 78.42 391.36C79.02 390.78 79.87 390.5 80.98 390.5C82.09 390.5 82.95 390.79 83.57 391.36C84.19 391.93 84.5 392.82 84.5 394.02V411.77C84.5 414.49 85.05 416.49 86.16 417.78C87.26 419.07 89.01 419.71 91.41 419.71C94.03 419.71 96.16 418.82 97.8 417.05C99.43 415.28 100.25 412.94 100.25 410.04V394.02C100.25 392.82 100.55 391.94 101.15 391.36C101.75 390.78 102.62 390.5 103.77 390.5C104.92 390.5 105.73 390.79 106.33 391.36C106.93 391.94 107.23 392.82 107.23 394.02V421.65C107.23 424 106.1 425.17 103.85 425.17C102.79 425.17 101.96 424.86 101.36 424.24C100.76 423.62 100.46 422.76 100.46 421.65V415.78L101.36 417.3C100.44 419.88 98.97 421.86 96.94 423.24C94.91 424.62 92.52 425.31 89.76 425.31L89.74 425.3Z" fill="#F89A21"/>
<path d="M134.01 425.3C131.06 425.3 128.47 424.6 126.24 423.19C124.01 421.79 122.27 419.76 121.03 417.11C119.79 414.46 119.16 411.37 119.16 407.82C119.16 404.27 119.78 401.08 121.03 398.5C122.27 395.92 124.01 393.92 126.24 392.49C128.47 391.06 131.06 390.35 134.01 390.35C136.96 390.35 139.5 391.07 141.64 392.53C143.78 393.98 145.22 395.93 145.96 398.37H145.2V379.03C145.2 377.88 145.5 377.01 146.1 376.41C146.7 375.81 147.55 375.51 148.66 375.51C149.77 375.51 150.63 375.81 151.25 376.41C151.87 377.01 152.18 377.88 152.18 379.03V421.65C152.18 422.76 151.88 423.62 151.28 424.24C150.68 424.86 149.83 425.17 148.72 425.17C147.61 425.17 146.76 424.86 146.16 424.24C145.56 423.62 145.26 422.76 145.26 421.65V415.57L146.02 417.09C145.28 419.58 143.84 421.57 141.7 423.06C139.56 424.56 136.99 425.3 134 425.3H134.01ZM135.81 419.92C137.7 419.92 139.35 419.46 140.78 418.54C142.21 417.62 143.32 416.26 144.13 414.47C144.94 412.67 145.34 410.46 145.34 407.84C145.34 403.88 144.47 400.89 142.72 398.86C140.97 396.83 138.67 395.82 135.81 395.82C133.88 395.82 132.19 396.27 130.77 397.17C129.35 398.07 128.23 399.41 127.42 401.21C126.61 403 126.21 405.22 126.21 407.84C126.21 411.75 127.08 414.75 128.83 416.82C130.58 418.89 132.9 419.93 135.81 419.93V419.92Z" fill="#F89A21"/>
<path d="M174.07 437.6C173.24 437.6 172.56 437.38 172.03 436.94C171.5 436.5 171.2 435.93 171.13 435.21C171.06 434.49 171.19 433.73 171.51 432.9L176.21 422.33V425.3L163.29 395.25C162.97 394.42 162.85 393.64 162.94 392.9C163.03 392.16 163.38 391.58 163.98 391.14C164.58 390.7 165.38 390.48 166.4 390.48C167.27 390.48 167.96 390.69 168.47 391.1C168.98 391.51 169.44 392.23 169.85 393.24L180.28 419H178.35L188.92 393.24C189.33 392.18 189.82 391.46 190.37 391.06C190.92 390.67 191.68 390.47 192.65 390.47C193.48 390.47 194.13 390.69 194.62 391.13C195.1 391.57 195.4 392.14 195.52 392.86C195.64 393.57 195.51 394.35 195.14 395.17L177.87 434.88C177.41 435.94 176.89 436.65 176.32 437.02C175.74 437.39 175 437.57 174.08 437.57L174.07 437.6Z" fill="#F89A21"/>
<path d="M242.93 425.3C240.17 425.3 237.84 424.82 235.95 423.85C234.06 422.88 232.66 421.46 231.74 419.57C230.82 417.68 230.36 415.38 230.36 412.66V396.36H226.22C225.3 396.36 224.58 396.12 224.08 395.64C223.57 395.16 223.32 394.5 223.32 393.67C223.32 392.8 223.57 392.13 224.08 391.67C224.59 391.21 225.3 390.98 226.22 390.98H230.36V383.87C230.36 382.72 230.67 381.84 231.29 381.25C231.91 380.65 232.78 380.35 233.88 380.35C234.98 380.35 235.84 380.65 236.44 381.25C237.04 381.85 237.34 382.72 237.34 383.87V390.98H245.42C246.34 390.98 247.05 391.21 247.56 391.67C248.07 392.13 248.32 392.8 248.32 393.67C248.32 394.5 248.07 395.16 247.56 395.64C247.05 396.12 246.34 396.36 245.42 396.36H237.34V412.11C237.34 414.55 237.86 416.39 238.89 417.64C239.93 418.88 241.62 419.51 243.97 419.51C244.8 419.51 245.52 419.43 246.15 419.27C246.77 419.11 247.29 419.01 247.7 418.96C248.21 418.96 248.62 419.13 248.94 419.48C249.26 419.83 249.42 420.48 249.42 421.45C249.42 422.14 249.29 422.79 249.04 423.38C248.79 423.98 248.34 424.37 247.69 424.55C247.14 424.73 246.39 424.91 245.45 425.07C244.51 425.23 243.67 425.31 242.93 425.31V425.3Z" fill="#F89A21"/>
<path d="M261.99 425.17C260.88 425.17 260.03 424.86 259.43 424.24C258.83 423.62 258.53 422.76 258.53 421.65V379.03C258.53 377.88 258.83 377.01 259.43 376.41C260.03 375.81 260.88 375.51 261.99 375.51C263.1 375.51 263.96 375.81 264.58 376.41C265.2 377.01 265.51 377.88 265.51 379.03V398.16H264.54C265.55 395.58 267.14 393.64 269.31 392.32C271.47 391.01 273.96 390.35 276.77 390.35C279.58 390.35 281.66 390.84 283.44 391.83C285.21 392.82 286.54 394.32 287.41 396.32C288.28 398.32 288.72 400.84 288.72 403.88V421.63C288.72 422.74 288.42 423.6 287.82 424.22C287.22 424.84 286.37 425.15 285.26 425.15C284.15 425.15 283.23 424.84 282.64 424.22C282.05 423.6 281.74 422.74 281.74 421.63V404.29C281.74 401.39 281.17 399.27 280.05 397.94C278.92 396.61 277.16 395.94 274.77 395.94C271.96 395.94 269.72 396.81 268.04 398.56C266.36 400.31 265.52 402.66 265.52 405.6V421.62C265.52 423.97 264.35 425.14 262 425.14L261.99 425.17Z" fill="#F89A21"/>
<path d="M318.28 425.3C314.6 425.3 311.43 424.6 308.78 423.19C306.13 421.79 304.08 419.78 302.63 417.18C301.18 414.58 300.45 411.48 300.45 407.89C300.45 404.3 301.16 401.33 302.59 398.7C304.02 396.08 305.97 394.03 308.46 392.55C310.95 391.08 313.78 390.34 316.96 390.34C319.31 390.34 321.4 390.72 323.24 391.48C325.08 392.24 326.66 393.35 327.97 394.8C329.28 396.25 330.27 398.01 330.94 400.08C331.61 402.15 331.94 404.48 331.94 407.06C331.94 407.84 331.71 408.43 331.25 408.82C330.79 409.21 330.1 409.41 329.18 409.41H305.97V405.13H327.24L326.07 406.1C326.07 403.8 325.73 401.84 325.07 400.23C324.4 398.62 323.41 397.39 322.1 396.54C320.79 395.69 319.16 395.26 317.23 395.26C315.07 395.26 313.23 395.77 311.74 396.78C310.24 397.79 309.1 399.2 308.32 400.99C307.54 402.79 307.15 404.88 307.15 407.28V407.69C307.15 411.74 308.1 414.79 310.02 416.84C311.93 418.89 314.7 419.91 318.34 419.91C319.72 419.91 321.18 419.73 322.72 419.36C324.26 418.99 325.72 418.37 327.11 417.5C327.89 417.04 328.6 416.83 329.22 416.88C329.84 416.93 330.35 417.13 330.74 417.5C331.13 417.87 331.37 418.33 331.46 418.88C331.55 419.43 331.46 420 331.18 420.57C330.9 421.15 330.42 421.66 329.73 422.12C328.16 423.18 326.35 423.97 324.27 424.5C322.2 425.03 320.19 425.3 318.26 425.3H318.28Z" fill="#F89A21"/>
<path d="M347.22 425.17C346.07 425.17 345.19 424.86 344.6 424.24C344.01 423.62 343.7 422.76 343.7 421.65V394.02C343.7 392.87 344 392 344.6 391.4C345.2 390.8 346.03 390.5 347.09 390.5C348.15 390.5 349.03 390.8 349.61 391.4C350.19 392 350.47 392.87 350.47 394.02V399.06H349.78C350.52 396.3 351.88 394.2 353.86 392.77C355.84 391.34 358.37 390.52 361.46 390.28C362.29 390.23 362.95 390.44 363.43 390.9C363.91 391.36 364.18 392.07 364.22 393.04C364.31 394.01 364.1 394.78 363.6 395.35C363.09 395.93 362.31 396.26 361.25 396.35L359.94 396.49C356.95 396.77 354.67 397.71 353.1 399.32C351.53 400.93 350.75 403.14 350.75 405.95V421.63C350.75 422.74 350.46 423.6 349.89 424.22C349.31 424.84 348.43 425.15 347.23 425.15L347.22 425.17Z" fill="#F89A21"/>
<path d="M388.93 425.3C385.25 425.3 382.08 424.6 379.43 423.19C376.78 421.79 374.73 419.78 373.28 417.18C371.83 414.58 371.1 411.48 371.1 407.89C371.1 404.3 371.81 401.33 373.24 398.7C374.67 396.08 376.62 394.03 379.11 392.55C381.6 391.08 384.43 390.34 387.61 390.34C389.96 390.34 392.05 390.72 393.89 391.48C395.73 392.24 397.31 393.35 398.62 394.8C399.93 396.25 400.92 398.01 401.59 400.08C402.26 402.15 402.59 404.48 402.59 407.06C402.59 407.84 402.36 408.43 401.9 408.82C401.44 409.21 400.75 409.41 399.83 409.41H376.62V405.13H397.89L396.72 406.1C396.72 403.8 396.38 401.84 395.72 400.23C395.05 398.62 394.06 397.39 392.75 396.54C391.44 395.69 389.81 395.26 387.88 395.26C385.72 395.26 383.88 395.77 382.39 396.78C380.89 397.79 379.75 399.2 378.97 400.99C378.19 402.79 377.8 404.88 377.8 407.28V407.69C377.8 411.74 378.75 414.79 380.67 416.84C382.58 418.89 385.35 419.91 388.99 419.91C390.37 419.91 391.83 419.73 393.37 419.36C394.91 418.99 396.37 418.37 397.76 417.5C398.54 417.04 399.25 416.83 399.87 416.88C400.49 416.93 401 417.13 401.39 417.5C401.78 417.87 402.02 418.33 402.11 418.88C402.2 419.43 402.11 420 401.83 420.57C401.55 421.15 401.07 421.66 400.38 422.12C398.81 423.18 397 423.97 394.92 424.5C392.85 425.03 390.84 425.3 388.91 425.3H388.93Z" fill="#F89A21"/>
<path d="M418.49 431.66C417.98 432.3 417.44 432.67 416.87 432.76C416.29 432.85 415.8 432.74 415.38 432.41C414.97 432.09 414.73 431.64 414.69 431.06C414.64 430.48 414.9 429.85 415.45 429.16C416.28 428.15 416.84 427.1 417.14 426.02C417.44 424.94 417.59 423.98 417.59 423.15L417.87 424.94C416.49 424.94 415.37 424.54 414.52 423.73C413.67 422.92 413.24 421.85 413.24 420.52C413.24 419.19 413.63 418.18 414.41 417.38C415.19 416.57 416.25 416.17 417.59 416.17C418.93 416.17 420.07 416.64 420.87 417.59C421.68 418.53 422.08 419.88 422.08 421.63C422.08 422.64 421.98 423.7 421.77 424.81C421.56 425.91 421.21 427.04 420.7 428.19C420.19 429.34 419.46 430.49 418.49 431.64V431.66Z" fill="#F89A21"/>
<path d="M474.23 425.3C472.11 425.3 470.04 425.14 468.01 424.82C465.98 424.5 464.07 424 462.28 423.33C460.48 422.66 458.87 421.85 457.44 420.88C456.75 420.37 456.28 419.8 456.02 419.15C455.77 418.51 455.7 417.87 455.81 417.25C455.92 416.63 456.19 416.09 456.6 415.63C457.01 415.17 457.52 414.88 458.12 414.77C458.72 414.66 459.39 414.85 460.12 415.36C462.19 416.7 464.38 417.67 466.68 418.3C468.98 418.92 471.49 419.23 474.21 419.23C478.12 419.23 481.01 418.53 482.88 417.12C484.75 415.71 485.68 413.89 485.68 411.63C485.68 409.79 485.01 408.33 483.68 407.25C482.34 406.17 480.11 405.3 476.98 404.66L469.59 403.14C465.22 402.22 461.96 400.7 459.82 398.58C457.68 396.46 456.61 393.61 456.61 390.02C456.61 387.86 457.06 385.88 457.96 384.08C458.86 382.28 460.11 380.73 461.72 379.42C463.33 378.11 465.26 377.11 467.52 376.42C469.77 375.73 472.24 375.38 474.91 375.38C477.76 375.38 480.45 375.75 482.96 376.48C485.47 377.22 487.71 378.35 489.69 379.86C490.29 380.27 490.69 380.79 490.9 381.41C491.11 382.03 491.15 382.64 491.04 383.24C490.92 383.84 490.66 384.35 490.25 384.76C489.84 385.17 489.31 385.42 488.66 385.48C488.01 385.54 487.3 385.33 486.52 384.82C484.73 383.62 482.89 382.76 481.03 382.23C479.17 381.7 477.1 381.44 474.85 381.44C472.6 381.44 470.62 381.79 468.94 382.48C467.26 383.17 465.97 384.14 465.07 385.38C464.17 386.62 463.72 388.1 463.72 389.8C463.72 391.73 464.34 393.28 465.59 394.43C466.83 395.58 468.9 396.46 471.81 397.05L479.13 398.57C483.73 399.54 487.16 401.03 489.42 403.06C491.67 405.09 492.8 407.78 492.8 411.14C492.8 413.3 492.36 415.25 491.49 416.98C490.61 418.71 489.37 420.19 487.76 421.44C486.15 422.68 484.2 423.64 481.92 424.31C479.64 424.98 477.07 425.31 474.22 425.31L474.23 425.3Z" fill="#F89A21"/>
<path d="M518.5 425.3C515.74 425.3 513.41 424.82 511.52 423.85C509.63 422.88 508.23 421.46 507.31 419.57C506.39 417.68 505.93 415.38 505.93 412.66V396.36H501.79C500.87 396.36 500.15 396.12 499.65 395.64C499.14 395.16 498.89 394.5 498.89 393.67C498.89 392.8 499.14 392.13 499.65 391.67C500.16 391.21 500.87 390.98 501.79 390.98H505.93V383.87C505.93 382.72 506.24 381.84 506.86 381.25C507.48 380.65 508.35 380.35 509.45 380.35C510.55 380.35 511.41 380.65 512.01 381.25C512.61 381.85 512.91 382.72 512.91 383.87V390.98H520.99C521.91 390.98 522.62 391.21 523.13 391.67C523.64 392.13 523.89 392.8 523.89 393.67C523.89 394.5 523.64 395.16 523.13 395.64C522.62 396.12 521.91 396.36 520.99 396.36H512.91V412.11C512.91 414.55 513.43 416.39 514.46 417.64C515.5 418.88 517.19 419.51 519.54 419.51C520.37 419.51 521.09 419.43 521.72 419.27C522.34 419.11 522.86 419.01 523.27 418.96C523.78 418.96 524.19 419.13 524.51 419.48C524.83 419.83 524.99 420.48 524.99 421.45C524.99 422.14 524.86 422.79 524.61 423.38C524.36 423.98 523.91 424.37 523.26 424.55C522.71 424.73 521.96 424.91 521.02 425.07C520.08 425.23 519.24 425.31 518.5 425.31V425.3Z" fill="#F89A21"/>
<path d="M545.51 425.3C542.79 425.3 540.53 424.79 538.71 423.78C536.89 422.77 535.53 421.26 534.64 419.26C533.74 417.26 533.29 414.74 533.29 411.7V394.02C533.29 392.82 533.59 391.94 534.19 391.36C534.79 390.78 535.64 390.5 536.75 390.5C537.86 390.5 538.72 390.79 539.34 391.36C539.96 391.93 540.27 392.82 540.27 394.02V411.77C540.27 414.49 540.82 416.49 541.93 417.78C543.03 419.07 544.78 419.71 547.18 419.71C549.8 419.71 551.93 418.82 553.57 417.05C555.2 415.28 556.02 412.94 556.02 410.04V394.02C556.02 392.82 556.32 391.94 556.92 391.36C557.52 390.78 558.39 390.5 559.54 390.5C560.69 390.5 561.5 390.79 562.1 391.36C562.7 391.94 563 392.82 563 394.02V421.65C563 424 561.87 425.17 559.62 425.17C558.56 425.17 557.73 424.86 557.13 424.24C556.53 423.62 556.23 422.76 556.23 421.65V415.78L557.13 417.3C556.21 419.88 554.74 421.86 552.71 423.24C550.68 424.62 548.29 425.31 545.53 425.31L545.51 425.3Z" fill="#F89A21"/>
<path d="M589.78 425.3C586.83 425.3 584.24 424.6 582.01 423.19C579.78 421.79 578.04 419.76 576.8 417.11C575.56 414.46 574.93 411.37 574.93 407.82C574.93 404.27 575.55 401.08 576.8 398.5C578.04 395.92 579.78 393.92 582.01 392.49C584.24 391.06 586.83 390.35 589.78 390.35C592.73 390.35 595.27 391.07 597.41 392.53C599.55 393.98 600.99 395.93 601.73 398.37H600.97V379.03C600.97 377.88 601.27 377.01 601.87 376.41C602.47 375.81 603.32 375.51 604.43 375.51C605.54 375.51 606.4 375.81 607.02 376.41C607.64 377.01 607.95 377.88 607.95 379.03V421.65C607.95 422.76 607.65 423.62 607.05 424.24C606.45 424.86 605.6 425.17 604.49 425.17C603.38 425.17 602.53 424.86 601.93 424.24C601.33 423.62 601.03 422.76 601.03 421.65V415.57L601.79 417.09C601.05 419.58 599.61 421.57 597.47 423.06C595.33 424.56 592.76 425.3 589.77 425.3H589.78ZM591.58 419.92C593.47 419.92 595.12 419.46 596.55 418.54C597.98 417.62 599.09 416.26 599.9 414.47C600.71 412.67 601.11 410.46 601.11 407.84C601.11 403.88 600.24 400.89 598.49 398.86C596.74 396.83 594.44 395.82 591.58 395.82C589.65 395.82 587.96 396.27 586.54 397.17C585.12 398.07 584 399.41 583.19 401.21C582.38 403 581.98 405.22 581.98 407.84C581.98 411.75 582.85 414.75 584.6 416.82C586.35 418.89 588.67 419.93 591.58 419.93V419.92Z" fill="#F89A21"/>
<path d="M629.84 437.6C629.01 437.6 628.33 437.38 627.8 436.94C627.27 436.5 626.97 435.93 626.9 435.21C626.83 434.49 626.96 433.73 627.28 432.9L631.98 422.33V425.3L619.06 395.25C618.74 394.42 618.62 393.64 618.71 392.9C618.8 392.16 619.15 391.58 619.75 391.14C620.35 390.7 621.15 390.48 622.17 390.48C623.04 390.48 623.73 390.69 624.24 391.1C624.75 391.51 625.21 392.23 625.62 393.24L636.05 419H634.12L644.69 393.24C645.1 392.18 645.59 391.46 646.14 391.06C646.69 390.67 647.45 390.47 648.42 390.47C649.25 390.47 649.9 390.69 650.39 391.13C650.87 391.57 651.17 392.14 651.29 392.86C651.41 393.57 651.28 394.35 650.91 395.17L633.64 434.88C633.18 435.94 632.66 436.65 632.09 437.02C631.51 437.39 630.77 437.57 629.85 437.57L629.84 437.6Z" fill="#F89A21"/>
<path d="M695.11 425.3C692.76 425.3 690.65 424.84 688.79 423.92C686.93 423 685.46 421.76 684.4 420.19C683.34 418.63 682.81 416.85 682.81 414.87C682.81 412.38 683.44 410.41 684.71 408.97C685.98 407.52 688.07 406.48 690.99 405.86C693.91 405.24 697.86 404.93 702.83 404.93H706.08V409.21H702.9C699.59 409.21 696.96 409.37 695.03 409.69C693.1 410.01 691.72 410.55 690.92 411.31C690.11 412.07 689.71 413.12 689.71 414.45C689.71 416.2 690.31 417.62 691.51 418.7C692.71 419.78 694.36 420.32 696.48 420.32C698.18 420.32 699.68 419.92 700.97 419.11C702.26 418.3 703.28 417.21 704.04 415.83C704.8 414.45 705.18 412.86 705.18 411.06V403.12C705.18 400.5 704.63 398.61 703.52 397.46C702.41 396.31 700.59 395.73 698.06 395.73C696.59 395.73 695.06 395.92 693.47 396.28C691.88 396.65 690.24 397.27 688.53 398.15C687.75 398.52 687.08 398.63 686.53 398.5C685.98 398.36 685.54 398.05 685.22 397.57C684.9 397.09 684.73 396.56 684.7 395.98C684.68 395.4 684.81 394.84 685.11 394.29C685.41 393.74 685.93 393.32 686.66 393.05C688.69 392.08 690.69 391.39 692.67 390.98C694.65 390.57 696.51 390.36 698.26 390.36C701.34 390.36 703.89 390.84 705.89 391.81C707.89 392.78 709.38 394.25 710.35 396.23C711.32 398.21 711.8 400.77 711.8 403.9V421.65C711.8 422.76 711.52 423.62 710.97 424.24C710.42 424.86 709.61 425.17 708.55 425.17C707.49 425.17 706.73 424.86 706.13 424.24C705.53 423.62 705.23 422.76 705.23 421.65V417.16H705.85C705.48 418.86 704.8 420.33 703.81 421.54C702.82 422.76 701.59 423.69 700.12 424.34C698.65 424.98 696.96 425.31 695.08 425.31L695.11 425.3Z" fill="#F89A21"/>
<path d="M729.02 425.17C727.91 425.17 727.06 424.86 726.46 424.24C725.86 423.62 725.56 422.76 725.56 421.65V394.02C725.56 392.87 725.86 392 726.46 391.4C727.06 390.8 727.89 390.5 728.95 390.5C730.01 390.5 730.89 390.8 731.47 391.4C732.05 392 732.33 392.87 732.33 394.02V399.41L731.57 398.17C732.58 395.59 734.17 393.65 736.34 392.33C738.5 391.02 740.99 390.36 743.8 390.36C746.61 390.36 748.69 390.85 750.47 391.84C752.24 392.83 753.57 394.33 754.44 396.33C755.31 398.33 755.75 400.85 755.75 403.89V421.64C755.75 422.75 755.45 423.61 754.85 424.23C754.25 424.85 753.4 425.16 752.29 425.16C751.18 425.16 750.26 424.85 749.67 424.23C749.08 423.61 748.77 422.75 748.77 421.64V404.3C748.77 401.4 748.2 399.28 747.08 397.95C745.95 396.62 744.19 395.95 741.8 395.95C738.99 395.95 736.75 396.82 735.07 398.57C733.39 400.32 732.55 402.67 732.55 405.61V421.63C732.55 423.98 731.38 425.15 729.03 425.15L729.02 425.17Z" fill="#F89A21"/>
<path d="M777.09 437.6C776.26 437.6 775.58 437.38 775.05 436.94C774.52 436.5 774.22 435.93 774.15 435.21C774.08 434.49 774.21 433.73 774.53 432.9L779.23 422.33V425.3L766.31 395.25C765.99 394.42 765.87 393.64 765.96 392.9C766.05 392.16 766.4 391.58 767 391.14C767.6 390.7 768.4 390.48 769.42 390.48C770.29 390.48 770.98 390.69 771.49 391.1C772 391.51 772.46 392.23 772.87 393.24L783.3 419H781.37L791.94 393.24C792.35 392.18 792.84 391.46 793.39 391.06C793.94 390.67 794.7 390.47 795.67 390.47C796.5 390.47 797.15 390.69 797.64 391.13C798.12 391.57 798.42 392.14 798.54 392.86C798.66 393.57 798.53 394.35 798.16 395.17L780.89 434.88C780.43 435.94 779.91 436.65 779.34 437.02C778.76 437.39 778.02 437.57 777.1 437.57L777.09 437.6Z" fill="#F89A21"/>
<path d="M823.43 425.17C822.46 425.17 821.62 424.93 820.91 424.45C820.2 423.97 819.63 423.2 819.22 422.14L809.07 395.27C808.7 394.35 808.59 393.53 808.72 392.82C808.86 392.11 809.21 391.54 809.79 391.13C810.37 390.72 811.11 390.51 812.03 390.51C812.86 390.51 813.54 390.71 814.07 391.1C814.6 391.49 815.05 392.24 815.42 393.34L824.47 418.83H822.81L832.2 393.07C832.52 392.2 832.96 391.55 833.51 391.14C834.06 390.73 834.78 390.52 835.65 390.52C836.52 390.52 837.25 390.73 837.82 391.14C838.4 391.55 838.82 392.2 839.1 393.07L848.29 418.83H846.77L855.96 393.21C856.33 392.15 856.8 391.44 857.38 391.07C857.96 390.7 858.61 390.52 859.35 390.52C860.27 390.52 860.97 390.75 861.46 391.21C861.94 391.67 862.22 392.26 862.29 392.97C862.36 393.68 862.23 394.45 861.91 395.28L851.76 422.15C851.35 423.16 850.78 423.92 850.07 424.43C849.36 424.94 848.54 425.19 847.62 425.19C846.65 425.19 845.81 424.94 845.1 424.43C844.39 423.92 843.82 423.16 843.41 422.15L833.74 395.97H837.19L827.59 422.15C827.22 423.16 826.68 423.92 825.97 424.43C825.26 424.94 824.42 425.19 823.45 425.19L823.43 425.17Z" fill="#F89A21"/>
<path d="M877.17 425.17C876.06 425.17 875.21 424.86 874.61 424.24C874.01 423.62 873.71 422.76 873.71 421.65V379.03C873.71 377.88 874.01 377.01 874.61 376.41C875.21 375.81 876.06 375.51 877.17 375.51C878.28 375.51 879.14 375.81 879.76 376.41C880.38 377.01 880.69 377.88 880.69 379.03V398.16H879.72C880.73 395.58 882.32 393.64 884.49 392.32C886.65 391.01 889.14 390.35 891.95 390.35C894.76 390.35 896.84 390.84 898.62 391.83C900.39 392.82 901.72 394.32 902.59 396.32C903.46 398.32 903.9 400.84 903.9 403.88V421.63C903.9 422.74 903.6 423.6 903 424.22C902.4 424.84 901.55 425.15 900.44 425.15C899.33 425.15 898.41 424.84 897.82 424.22C897.23 423.6 896.92 422.74 896.92 421.63V404.29C896.92 401.39 896.35 399.27 895.23 397.94C894.1 396.61 892.34 395.94 889.95 395.94C887.14 395.94 884.9 396.81 883.22 398.56C881.54 400.31 880.7 402.66 880.7 405.6V421.62C880.7 423.97 879.53 425.14 877.18 425.14L877.17 425.17Z" fill="#F89A21"/>
<path d="M933.46 425.3C929.78 425.3 926.61 424.6 923.96 423.19C921.31 421.79 919.26 419.78 917.81 417.18C916.36 414.58 915.63 411.48 915.63 407.89C915.63 404.3 916.34 401.33 917.77 398.7C919.2 396.08 921.15 394.03 923.64 392.55C926.13 391.08 928.96 390.34 932.14 390.34C934.49 390.34 936.58 390.72 938.42 391.48C940.26 392.24 941.84 393.35 943.15 394.8C944.46 396.25 945.45 398.01 946.12 400.08C946.79 402.15 947.12 404.48 947.12 407.06C947.12 407.84 946.89 408.43 946.43 408.82C945.97 409.21 945.28 409.41 944.36 409.41H921.15V405.13H942.42L941.25 406.1C941.25 403.8 940.91 401.84 940.25 400.23C939.58 398.62 938.59 397.39 937.28 396.54C935.97 395.69 934.34 395.26 932.41 395.26C930.25 395.26 928.41 395.77 926.92 396.78C925.42 397.79 924.28 399.2 923.5 400.99C922.72 402.79 922.33 404.88 922.33 407.28V407.69C922.33 411.74 923.28 414.79 925.2 416.84C927.11 418.89 929.88 419.91 933.52 419.91C934.9 419.91 936.36 419.73 937.9 419.36C939.44 418.99 940.9 418.37 942.29 417.5C943.07 417.04 943.78 416.83 944.4 416.88C945.02 416.93 945.53 417.13 945.92 417.5C946.31 417.87 946.55 418.33 946.64 418.88C946.73 419.43 946.64 420 946.36 420.57C946.08 421.15 945.6 421.66 944.91 422.12C943.34 423.18 941.53 423.97 939.45 424.5C937.38 425.03 935.37 425.3 933.44 425.3H933.46Z" fill="#F89A21"/>
<path d="M962.39 425.17C961.24 425.17 960.36 424.86 959.77 424.24C959.18 423.62 958.87 422.76 958.87 421.65V394.02C958.87 392.87 959.17 392 959.77 391.4C960.37 390.8 961.2 390.5 962.26 390.5C963.32 390.5 964.2 390.8 964.78 391.4C965.36 392 965.64 392.87 965.64 394.02V399.06H964.95C965.69 396.3 967.05 394.2 969.03 392.77C971.01 391.34 973.54 390.52 976.63 390.28C977.46 390.23 978.12 390.44 978.6 390.9C979.08 391.36 979.35 392.07 979.39 393.04C979.48 394.01 979.27 394.78 978.77 395.35C978.26 395.93 977.48 396.26 976.42 396.35L975.11 396.49C972.12 396.77 969.84 397.71 968.27 399.32C966.7 400.93 965.92 403.14 965.92 405.95V421.63C965.92 422.74 965.63 423.6 965.06 424.22C964.48 424.84 963.6 425.15 962.4 425.15L962.39 425.17Z" fill="#F89A21"/>
<path d="M1004.11 425.3C1000.43 425.3 997.26 424.6 994.61 423.19C991.96 421.79 989.91 419.78 988.46 417.18C987.01 414.58 986.28 411.48 986.28 407.89C986.28 404.3 986.99 401.33 988.42 398.7C989.85 396.08 991.8 394.03 994.29 392.55C996.78 391.08 999.61 390.34 1002.79 390.34C1005.14 390.34 1007.23 390.72 1009.07 391.48C1010.91 392.24 1012.49 393.35 1013.8 394.8C1015.11 396.25 1016.1 398.01 1016.77 400.08C1017.44 402.15 1017.77 404.48 1017.77 407.06C1017.77 407.84 1017.54 408.43 1017.08 408.82C1016.62 409.21 1015.93 409.41 1015.01 409.41H991.8V405.13H1013.07L1011.9 406.1C1011.9 403.8 1011.56 401.84 1010.9 400.23C1010.23 398.62 1009.24 397.39 1007.93 396.54C1006.62 395.69 1004.99 395.26 1003.06 395.26C1000.9 395.26 999.06 395.77 997.57 396.78C996.07 397.79 994.93 399.2 994.15 400.99C993.37 402.79 992.98 404.88 992.98 407.28V407.69C992.98 411.74 993.93 414.79 995.85 416.84C997.76 418.89 1000.53 419.91 1004.17 419.91C1005.55 419.91 1007.01 419.73 1008.55 419.36C1010.09 418.99 1011.55 418.37 1012.94 417.5C1013.72 417.04 1014.43 416.83 1015.05 416.88C1015.67 416.93 1016.18 417.13 1016.57 417.5C1016.96 417.87 1017.2 418.33 1017.29 418.88C1017.38 419.43 1017.29 420 1017.01 420.57C1016.73 421.15 1016.25 421.66 1015.56 422.12C1013.99 423.18 1012.18 423.97 1010.1 424.5C1008.03 425.03 1006.02 425.3 1004.09 425.3H1004.11Z" fill="#F89A21"/>
<path d="M1032.91 424.96C1031.57 424.96 1030.49 424.55 1029.66 423.72C1028.83 422.89 1028.42 421.83 1028.42 420.54C1028.42 419.25 1028.83 418.2 1029.66 417.4C1030.49 416.59 1031.57 416.19 1032.91 416.19C1034.25 416.19 1035.3 416.59 1036.09 417.4C1036.87 418.21 1037.27 419.25 1037.27 420.54C1037.27 421.83 1036.88 422.89 1036.09 423.72C1035.3 424.55 1034.25 424.96 1032.91 424.96ZM1032.91 411.56C1032.17 411.56 1031.61 411.33 1031.22 410.87C1030.83 410.41 1030.59 409.77 1030.49 408.94L1028.83 380.07C1028.74 378.69 1029.04 377.58 1029.73 376.76C1030.42 375.94 1031.48 375.52 1032.91 375.52C1034.24 375.52 1035.26 375.94 1035.95 376.76C1036.64 377.59 1036.92 378.69 1036.78 380.07L1035.12 408.94C1035.07 409.77 1034.85 410.41 1034.46 410.87C1034.07 411.33 1033.55 411.56 1032.91 411.56Z" fill="#F89A21"/>
<defs>
<linearGradient id="paint0_linear_1_55" x1="561.1" y1="132.15" x2="439.26" y2="343.19" gradientUnits="userSpaceOnUse">
<stop stopColor="#4C6E99"/>
<stop offset="1" stopColor="#1F4A80"/>
</linearGradient>
<linearGradient id="paint1_linear_1_55" x1="546.9" y1="63.41" x2="461.44" y2="148.87" gradientUnits="userSpaceOnUse">
<stop stopColor="#FBC27A"/>
<stop offset="1" stopColor="#F89A21"/>
</linearGradient>
<radialGradient id="paint2_radial_1_55" cx="0" cy="0" r="1" gradientUnits="userSpaceOnUse" gradientTransform="translate(444.48 173.61) scale(186.46 186.46)">
<stop stopColor="white"/>
<stop offset="0.5" stopColor="#FBC27A"/>
<stop offset="1" stopColor="#F89A21"/>
</radialGradient>
<radialGradient id="paint3_radial_1_55" cx="0" cy="0" r="1" gradientUnits="userSpaceOnUse" gradientTransform="translate(488.41 113.37) scale(88.52 88.52)">
<stop stopColor="white"/>
<stop offset="0.5" stopColor="#FBC27A"/>
<stop offset="1" stopColor="#F89A21"/>
</radialGradient>
<linearGradient id="paint4_linear_1_55" x1="525.9" y1="65.99" x2="482.43" y2="109.46" gradientUnits="userSpaceOnUse">
<stop stopColor="#FBC27A"/>
<stop offset="1" stopColor="#F89A21"/>
</linearGradient>
<linearGradient id="paint5_linear_1_55" x1="504.17" y1="24.26" x2="504.17" y2="96.45" gradientUnits="userSpaceOnUse">
<stop stopColor="#FEEBD3"/>
<stop offset="1" stopColor="white" stop-opacity="0"/>
</linearGradient>
<radialGradient id="paint6_radial_1_55" cx="0" cy="0" r="1" gradientUnits="userSpaceOnUse" gradientTransform="translate(504.84 -64.85) scale(195.94 195.94)">
<stop stopColor="white"/>
<stop offset="0.03" stopColor="#EDF1F5"/>
<stop offset="0.12" stopColor="#B4C2D4"/>
<stop offset="0.2" stopColor="#879EBA"/>
<stop offset="0.28" stopColor="#6683A8"/>
<stop offset="0.34" stopColor="#53739D"/>
<stop offset="0.38" stopColor="#4C6E99"/>
<stop offset="0.67" stopColor="#1F4A80"/>
</radialGradient>
<radialGradient id="paint7_radial_1_55" cx="0" cy="0" r="1" gradientUnits="userSpaceOnUse" gradientTransform="translate(508.68 230.66) scale(89.54)">
<stop stopColor="white"/>
<stop offset="0.5" stopColor="#FBC27A"/>
<stop offset="1" stopColor="#F89A21"/>
</radialGradient>
<linearGradient id="paint8_linear_1_55" x1="141.26" y1="144.57" x2="17.42" y2="359.07" gradientUnits="userSpaceOnUse">
<stop stopColor="#4C6E99"/>
<stop offset="1" stopColor="#1F4A80"/>
</linearGradient>
<linearGradient id="paint9_linear_1_55" x1="320.16" y1="153.96" x2="200.69" y2="360.9" gradientUnits="userSpaceOnUse">
<stop stopColor="#4C6E99"/>
<stop offset="1" stopColor="#1F4A80"/>
</linearGradient>
<linearGradient id="paint10_linear_1_55" x1="785.6" y1="137.47" x2="652.52" y2="367.97" gradientUnits="userSpaceOnUse">
<stop stopColor="#4C6E99"/>
<stop offset="1" stopColor="#1F4A80"/>
</linearGradient>
<linearGradient id="paint11_linear_1_55" x1="1011.18" y1="185.09" x2="892.12" y2="391.32" gradientUnits="userSpaceOnUse">
<stop stopColor="#4C6E99"/>
<stop offset="1" stopColor="#1F4A80"/>
</linearGradient>
</defs>
</svg>
